<svg width="76" height="22" viewBox="0 0 76 22">
    <path d="M0.855225 11.0003C0.855225 10.5267 0.855307 10.1423 0.855307 10.1423H73.0551L64.2822 1.48659C64.1984 1.4085 64.1311 1.31436 64.0842 1.20973C64.0374 1.10509 64.0119 0.992091 64.0093 0.877406C64.0067 0.762722 64.0271 0.648682 64.0692 0.542031C64.1113 0.435379 64.1743 0.338282 64.2545 0.256481C64.3346 0.17468 64.4303 0.109837 64.5359 0.0657858C64.6415 0.0217344 64.7548 -0.000630654 64.8691 1.35299e-05C64.9835 0.000657714 65.0965 0.0242979 65.2016 0.0695361C65.3067 0.114774 65.4017 0.180692 65.4809 0.26339L75.7358 10.3798L75.7543 10.3977C75.8431 10.4879 75.9109 10.5969 75.9525 10.7167C75.9942 10.8365 76.0087 10.9641 75.9951 11.0903C75.9737 11.2967 75.8781 11.4882 75.7262 11.6291L65.4809 21.7366C65.4017 21.8193 65.3067 21.8852 65.2016 21.9305C65.0965 21.9757 64.9835 21.9993 64.8691 22C64.7548 22.0006 64.6415 21.9783 64.5359 21.9342C64.4303 21.8902 64.3346 21.8253 64.2545 21.7435C64.1743 21.6617 64.1113 21.5646 64.0692 21.458C64.0271 21.3513 64.0067 21.2373 64.0093 21.1226C64.0119 21.0079 64.0374 20.8949 64.0842 20.7903C64.1311 20.6856 64.1984 20.5915 64.2822 20.5134L73.0551 11.8577H0.855307C0.855307 11.8577 0.855225 11.474 0.855225 11.0003Z" fill="white"/>
</svg>
