<svg width="21" height="13" viewBox="0 0 21 13">
    <path d="M15.5 0.5C16.2956 0.5 17.0587 0.816071 17.6213 1.37868C18.1839 1.94129 18.5 2.70435 18.5 3.5V4.5H19.5C19.7652 4.5 20.0196 4.60536 20.2071 4.79289C20.3946 4.98043 20.5 5.23478 20.5 5.5V7.5C20.5 7.76522 20.3946 8.01957 20.2071 8.20711C20.0196 8.39464 19.7652 8.5 19.5 8.5H18.5V9.5C18.5 10.2956 18.1839 11.0587 17.6213 11.6213C17.0587 12.1839 16.2956 12.5 15.5 12.5H3.5C2.70435 12.5 1.94129 12.1839 1.37868 11.6213C0.816071 11.0587 0.5 10.2956 0.5 9.5V3.5C0.5 2.70435 0.816071 1.94129 1.37868 1.37868C1.94129 0.816071 2.70435 0.5 3.5 0.5H15.5ZM15.498 2H3.5C3.12695 1.99977 2.76719 2.13856 2.49095 2.38928C2.21471 2.64001 2.04181 2.98467 2.006 3.356L2 3.5V9.5C1.99999 9.87273 2.13876 10.2321 2.38925 10.5081C2.63974 10.7841 2.98402 10.957 3.355 10.993L3.5 11H15.498C15.8707 11 16.2301 10.8612 16.5061 10.6108C16.7821 10.3603 16.955 10.016 16.991 9.645L16.998 9.5V3.5C16.998 3.12727 16.8592 2.7679 16.6088 2.49189C16.3583 2.21589 16.014 2.04303 15.643 2.007L15.498 2ZM4.5 3.5H13.5C13.7449 3.50003 13.9813 3.58996 14.1644 3.75272C14.3474 3.91547 14.4643 4.13975 14.493 4.383L14.5 4.5V8.5C14.5 8.74493 14.41 8.98134 14.2473 9.16437C14.0845 9.34741 13.8603 9.46434 13.617 9.493L13.5 9.5H4.5C4.25489 9.50021 4.01825 9.4104 3.835 9.24762C3.65176 9.08484 3.53468 8.86042 3.506 8.617L3.5 8.5V4.5C3.50003 4.25507 3.58996 4.01866 3.75272 3.83563C3.91547 3.65259 4.13975 3.53566 4.383 3.507L4.5 3.5H13.5H4.5Z" fill="white"/>
</svg>
