<svg width="20" height="15" viewBox="0 0 20 15">
    <path d="M18.525 6.56188H14.6835C14.6156 6.55301 14.5467 6.55301 14.4788 6.56188H14.313C14.2621 6.58984 14.2132 6.62117 14.1668 6.65564C14.1125 6.69011 14.0604 6.72768 14.0108 6.76815C13.9782 6.80648 13.9489 6.84724 13.923 6.89003C13.8783 6.94909 13.8392 7.01184 13.806 7.07754L12.246 11.2122L8.18025 0.617694C8.11193 0.436696 7.98732 0.280313 7.82335 0.169799C7.65937 0.0592855 7.46399 0 7.26375 0C7.06351 0 6.86813 0.0592855 6.70415 0.169799C6.54018 0.280313 6.41557 0.436696 6.34725 0.617694L4.095 6.56188H0.975C0.716414 6.56188 0.468419 6.66066 0.285571 6.83649C0.102723 7.01232 0 7.25079 0 7.49945C0 7.74811 0.102723 7.98658 0.285571 8.16241C0.468419 8.33824 0.716414 8.43702 0.975 8.43702H5.1675C5.22292 8.41136 5.27523 8.37992 5.3235 8.34326C5.37779 8.30879 5.42988 8.27122 5.4795 8.23075L5.56725 8.10887C5.61372 8.05097 5.65299 7.98804 5.68425 7.92136L7.26375 3.67417L11.3197 14.3812C11.3879 14.5624 11.5124 14.719 11.6764 14.8297C11.8404 14.9405 12.0359 14.9999 12.2363 15C12.4366 14.9999 12.6321 14.9405 12.7961 14.8297C12.9601 14.719 13.0846 14.5624 13.1528 14.3812L15.3953 8.43702H18.525C18.7836 8.43702 19.0316 8.33824 19.2144 8.16241C19.3973 7.98658 19.5 7.74811 19.5 7.49945C19.5 7.25079 19.3973 7.01232 19.2144 6.83649C19.0316 6.66066 18.7836 6.56188 18.525 6.56188Z" fill="white"/>
</svg>
