<svg width="64" height="84" viewBox="0 0 64 84" fill="none">
<path d="M32 0C26.6957 0 21.6086 2.10714 17.8579 5.85786C14.1071 9.60859 12 14.6957 12 20V28H8C5.87827 28 3.84344 28.8429 2.34315 30.3431C0.842854 31.8434 0 33.8783 0 36V76C0 78.1217 0.842854 80.1566 2.34315 81.6569C3.84344 83.1571 5.87827 84 8 84H56C58.1217 84 60.1566 83.1571 61.6569 81.6569C63.1571 80.1566 64 78.1217 64 76V36C64 33.8783 63.1571 31.8434 61.6569 30.3431C60.1566 28.8429 58.1217 28 56 28H52V20C52 17.3736 51.4827 14.7728 50.4776 12.3463C49.4725 9.91982 47.9993 7.71504 46.1421 5.85786C44.285 4.00069 42.0802 2.5275 39.6537 1.52241C37.2272 0.517315 34.6264 0 32 0ZM32 7.6C38.84 7.6 44.4 13.16 44.4 20V28H19.6V20C19.6 13.16 25.16 7.6 32 7.6ZM32.76 38C36.52 38 39.52 38.84 41.68 40.48C43.84 42.16 44.92 44.4 44.92 47.2C44.92 48.96 44.32 50.52 43.16 52C42 53.44 40.48 54.56 38.64 55.4C37.6 56 36.92 56.6 36.56 57.28C36.2 58 36 58.88 36 60H28C28 58 28.4 56.64 29.16 55.68C30 54.72 31.36 53.6 33.44 52.32C34.48 51.76 35.32 51.04 36 50.16C36.56 49.32 36.88 48.32 36.88 47.2C36.88 46 36.52 45.12 35.8 44.44C35.08 43.72 34 43.4 32.76 43.4C31.68 43.4 30.8 43.68 30 44.24C29.36 44.8 28.96 45.64 28.96 46.76H21.08C20.88 44 22 41.6 24.2 40.16C26.36 38.72 29.2 38 32.76 38ZM28 64H36V72H28V64Z" fill="white"/>
</svg>
