<svg width="84" height="76" viewBox="0 0 84 76">
<path d="M79.0226 8.39555L73.6333 6.15674V42.2576L83.4064 18.83C85.0554 14.7522 83.1651 10.0747 79.0226 8.39555V8.39555ZM0.596642 23.1877L20.545 70.9624C21.1324 72.416 22.1344 73.6672 23.4277 74.5621C24.721 75.4571 26.2493 75.9568 27.8245 75.9998C28.8702 75.9998 29.9561 75.7999 31.0018 75.3601L60.6428 63.1665C63.6591 61.9272 65.5092 58.9688 65.5896 56.0103C65.6298 54.9709 65.4288 53.8115 65.0668 52.7721L44.9576 4.99735C44.3891 3.53421 43.3908 2.27504 42.0924 1.38373C40.7941 0.492428 39.2559 0.0102655 37.678 0C36.6324 0 35.5867 0.239873 34.5812 0.599683L4.98045 12.7932C3.01282 13.5942 1.4457 15.1391 0.623639 17.0883C-0.198421 19.0375 -0.208132 21.2314 0.596642 23.1877V23.1877ZM65.5494 7.99577C65.5494 5.87516 64.702 3.8414 63.1935 2.34191C61.685 0.842408 59.639 0 57.5057 0H51.6741L65.5494 33.3423" fill="white"/>
</svg>
