<svg width="64" height="64" viewBox="0 0 64 64">
    <path d="M22 60.3V46.5L11.7 54.1C14.6 56.8 18.1 58.9 22 60.3" fill="#2A5F9E"/>
    <path d="M42 60.2999C45.9 58.8999 49.4 56.7999 52.3 54.0999L42 46.3999V60.2999Z" fill="#2A5F9E"/>
    <path d="M3.70001 42C4.00001 43 4.40001 43.9 4.90001 44.9L8.80001 42H3.70001Z" fill="#2A5F9E"/>
    <path d="M55.2 42L59.1 44.9C59.5 44 59.9 43 60.3 42H55.2Z" fill="#2A5F9E"/>
    <path d="M23.5 38H2.59998C2.89998 39.4 3.29998 40.7 3.69998 42H8.79998L4.89998 44.9C5.69998 46.6 6.59998 48.1 7.69998 49.6L18 42H22V44L10.3 52.6L11.7 54L22 46.5V60.3C23.3 60.8 24.6 61.1 26 61.4V38H23.5Z" fill="white"/>
    <path d="M61.4 38H38V61.4C39.4 61.1 40.7 60.7 42 60.3V46.5L52.3 54C53.7 52.7 54.9 51.3 56.1 49.8L45.4 42H52.2L58.3 46.5C58.6 46 58.9 45.4 59.1 44.9L55.2 42H60.3C60.7 40.7 61.1 39.4 61.4 38" fill="white"/>
    <path d="M7.70001 49.6001C8.50001 50.7001 9.30001 51.7001 10.2 52.7001L22 44.1001V42.1001H18L7.70001 49.6001Z" fill="#ED4C5C"/>
    <path d="M45.5 42L56.2 49.8C56.6 49.3 56.9 48.8 57.3 48.3C57.4 48.2 57.4 48.1 57.5 48.1C57.8 47.6 58.2 47 58.5 46.5L52.2 42H45.5Z" fill="#ED4C5C"/>
    <path d="M42 3.7002V17.5002L52.3 9.9002C49.4 7.2002 45.9 5.1002 42 3.7002Z" fill="#2A5F9E"/>
    <path d="M22 3.7002C18.1 5.1002 14.6 7.2002 11.7 9.9002L22 17.6002V3.7002Z" fill="#2A5F9E"/>
    <path d="M60.3 22.0001C60 21.0001 59.6 20.1001 59.1 19.1001L55.2 22.0001H60.3" fill="#2A5F9E"/>
    <path d="M8.80001 22.0001L4.90001 19.1001C4.50001 20.1001 4.10001 21.0001 3.70001 22.0001H8.80001Z" fill="#2A5F9E"/>
    <path d="M61.3 26.0001C61 24.6001 60.6 23.3001 60.2 22.0001H55.1L59 19.1001C58.2 17.4001 57.3 15.9001 56.2 14.4001L46 22.0001H42V20.0001L53.7 11.4001L52.3 10.0001L42 17.5001V3.7001C40.7 3.2001 39.4 2.9001 38 2.6001V26.0001H61.3Z" fill="white"/>
    <path d="M2.59998 26.0001H26V2.6001C24.6 2.9001 23.3 3.3001 22 3.7001V17.5001L11.7 10.0001C10.3 11.3001 9.09998 12.7001 7.89998 14.2001L18.6 22.0001H11.8L5.69998 17.5001C5.39998 18.0001 5.09998 18.6001 4.89998 19.1001L8.79998 22.0001H3.69998C3.29998 23.3001 2.89998 24.6001 2.59998 26.0001Z" fill="white"/>
    <path d="M56.3 14.4C55.5 13.3 54.7 12.3 53.8 11.3L42 19.9V21.9H46L56.3 14.4Z" fill="#ED4C5C"/>
    <path d="M18.5 22L7.9 14.2C7.5 14.7 7.2 15.2 6.8 15.7C6.7 15.8 6.7 15.9 6.6 15.9C6.3 16.4 5.9 17 5.6 17.5L11.7 22H18.5Z" fill="#ED4C5C"/>
    <path d="M61.4 26H38V2.6C36.1 2.2 34.1 2 32 2C29.9 2 27.9 2.2 26 2.6V26H2.6C2.2 27.9 2 29.9 2 32C2 34.1 2.2 36.1 2.6 38H26V61.4C27.9 61.8 29.9 62 32 62C34.1 62 36.1 61.8 38 61.4V38H61.4C61.8 36.1 62 34.1 62 32C62 29.9 61.8 27.9 61.4 26Z" fill="#ED4C5C"/>
</svg>
