<svg width="24" height="22" viewBox="0 0 24 22">
    <path fill-rule="evenodd" clip-rule="evenodd" d="M2.3768 19.6074V9.23971H3.96067V19.6074C3.96067 19.819 4.0441 20.0218 4.19262 20.1714C4.34114 20.3209 4.54257 20.405 4.7526 20.405H19.0074C19.2174 20.405 19.4189 20.3209 19.5674 20.1714C19.7159 20.0218 19.7993 19.819 19.7993 19.6074V9.23971L21.3832 11.1664V19.6074C21.3832 20.242 21.1329 20.8505 20.6873 21.2992C20.2418 21.7479 19.6375 22 19.0074 22H4.7526C4.1225 22 3.5182 21.7479 3.07266 21.2992C2.62711 20.8505 2.3768 20.242 2.3768 19.6074ZM19.7993 2.06204V7.64467L16.6316 4.4546V2.06204C16.6316 1.85053 16.715 1.64768 16.8636 1.49811C17.0121 1.34855 17.2135 1.26452 17.4235 1.26452H19.0074C19.2174 1.26452 19.4189 1.34855 19.5674 1.49811C19.7159 1.64768 19.7993 1.85053 19.7993 2.06204Z" fill="white"/>
    <path fill-rule="evenodd" clip-rule="evenodd" d="M10.7602 0.467005C11.0572 0.167982 11.46 0 11.88 0C12.3 0 12.7028 0.167982 12.9998 0.467005L23.5278 11.0676C23.6765 11.2174 23.76 11.4205 23.76 11.6323C23.76 11.844 23.6765 12.0472 23.5278 12.1969C23.3791 12.3467 23.1774 12.4308 22.9671 12.4308C22.7568 12.4308 22.5551 12.3467 22.4064 12.1969L11.88 1.5947L1.35362 12.1969C1.20492 12.3467 1.00323 12.4308 0.792934 12.4308C0.582635 12.4308 0.380949 12.3467 0.232245 12.1969C0.083541 12.0472 0 11.844 0 11.6323C0 11.4205 0.083541 11.2174 0.232245 11.0676L10.7602 0.467005Z" fill="white"/>
</svg>
