<svg width="15" height="15" viewBox="0 0 15 15">
    <path d="M7.5 0C3.35826 0 0 3.35826 0 7.5C0 11.6417 3.35826 15 7.5 15C11.6417 15 15 11.6417 15 7.5C15 3.35826 11.6417 0 7.5 0ZM10.269 10.3493L9.16406 10.3443L7.5 8.36049L5.83761 10.3426L4.73103 10.3477C4.65737 10.3477 4.5971 10.2891 4.5971 10.2137C4.5971 10.1819 4.60882 10.1518 4.62891 10.1267L6.80692 7.53181L4.62891 4.93862C4.60868 4.91408 4.59745 4.88336 4.5971 4.85156C4.5971 4.7779 4.65737 4.71763 4.73103 4.71763L5.83761 4.72266L7.5 6.70647L9.16239 4.72433L10.2673 4.71931C10.341 4.71931 10.4012 4.7779 10.4012 4.85324C10.4012 4.88504 10.3895 4.91518 10.3694 4.94029L8.19475 7.53348L10.3711 10.1283C10.3912 10.1535 10.4029 10.1836 10.4029 10.2154C10.4029 10.2891 10.3426 10.3493 10.269 10.3493Z" fill="white"/>
</svg>
