<svg width="23" height="22" viewBox="0 0 23 22">
    <path fill-rule="evenodd" clip-rule="evenodd" d="M22.509 0.155136C22.5878 0.219675 22.6512 0.300889 22.6947 0.392915C22.7382 0.484941 22.7607 0.585481 22.7607 0.687277V19.9379C22.7606 20.0967 22.7055 20.2507 22.6047 20.3735C22.5039 20.4963 22.3637 20.5805 22.2079 20.6116L15.3327 21.9867C15.2437 22.0044 15.1522 22.0044 15.0632 21.9867L8.32274 20.6391L1.58228 21.9867C1.48258 22.0066 1.37969 22.0042 1.28104 21.9795C1.18239 21.9549 1.09043 21.9087 1.01178 21.8443C0.933131 21.7798 0.869756 21.6987 0.82622 21.6069C0.782684 21.515 0.760071 21.4146 0.76001 21.3129V2.06232C0.760106 1.90344 0.815226 1.74949 0.915999 1.62666C1.01677 1.50383 1.15698 1.41969 1.31278 1.38855L8.18798 0.0135072C8.27694 -0.00427312 8.36853 -0.00427312 8.45749 0.0135072L15.1979 1.36105L21.9384 0.0135072C22.0381 -0.00654668 22.1409 -0.00424553 22.2396 0.0202449C22.3383 0.0447353 22.4303 0.0908053 22.509 0.155136ZM14.5104 2.62609L9.01026 1.52605V19.3741L14.5104 20.4741V2.62609ZM15.8855 20.4741L21.3856 19.3741V1.52605L15.8855 2.62609V20.4741ZM7.63522 19.3741V1.52605L2.13505 2.62609V20.4741L7.63522 19.3741Z" fill="#5ACCD0"/>
</svg>
