<svg width="58" height="84" viewBox="0 0 58 84">
<path d="M49.7143 0H33.1429V17.0478C39.0726 17.7086 44.7574 19.8107 49.7143 23.1756V0ZM24.8571 0H8.28571V23.1756C13.2426 19.8107 18.9274 17.7086 24.8571 17.0478V0ZM29 84C36.6913 84 44.0675 80.9025 49.5061 75.3889C54.9447 69.8754 58 62.3974 58 54.6C58 46.8026 54.9447 39.3246 49.5061 33.8111C44.0675 28.2975 36.6913 25.2 29 25.2C21.3087 25.2 13.9325 28.2975 8.4939 33.8111C3.05535 39.3246 0 46.8026 0 54.6C0 62.3974 3.05535 69.8754 8.4939 75.3889C13.9325 80.9025 21.3087 84 29 84ZM23.925 48.2202L29 37.8L34.075 48.2202L45.4181 49.8876L37.2111 58.002L39.15 69.4554L29 64.05L18.8541 69.4554L20.793 58.002L12.586 49.8876L23.925 48.2202Z" fill="white"/>
</svg>
