<svg width="21" height="17" viewBox="0 0 21 17">
    <path d="M10.5888 4.17706C9.90804 4.17605 9.24892 4.41599 8.72814 4.85438C8.20737 5.29277 7.85855 5.90133 7.74346 6.57226C7.62838 7.24319 7.75446 7.9332 8.09938 8.52009C8.44429 9.10697 8.98578 9.55284 9.62794 9.77874C9.6233 9.83309 9.6233 9.88773 9.62794 9.94208V15.7071C9.62794 15.9619 9.72917 16.2063 9.90936 16.3865C10.0896 16.5667 10.3339 16.6679 10.5888 16.6679C10.8436 16.6679 11.088 16.5667 11.2682 16.3865C11.4484 16.2063 11.5496 15.9619 11.5496 15.7071V9.94208C11.5542 9.88773 11.5542 9.83309 11.5496 9.77874C12.1918 9.55284 12.7333 9.10697 13.0782 8.52009C13.4231 7.9332 13.5492 7.24319 13.4341 6.57226C13.319 5.90133 12.9702 5.29277 12.4494 4.85438C11.9286 4.41599 11.2695 4.17605 10.5888 4.17706ZM10.5888 8.02041C10.3987 8.02041 10.213 7.96406 10.055 7.85848C9.89695 7.7529 9.7738 7.60284 9.70108 7.42727C9.62836 7.2517 9.60933 7.05851 9.6464 6.87212C9.68348 6.68574 9.77499 6.51453 9.90936 6.38016C10.0437 6.24578 10.2149 6.15427 10.4013 6.1172C10.5877 6.08012 10.7809 6.09915 10.9565 6.17188C11.132 6.2446 11.2821 6.36775 11.3877 6.52576C11.4933 6.68377 11.5496 6.86954 11.5496 7.05957C11.5496 7.3144 11.4484 7.55879 11.2682 7.73899C11.088 7.91918 10.8436 8.02041 10.5888 8.02041ZM2.42167 7.05957C2.44792 6.08677 2.68893 5.13179 3.12746 4.26304C3.56599 3.39429 4.19118 2.63324 4.95828 2.0344C5.1545 1.87131 5.27789 1.63695 5.30132 1.38288C5.32474 1.12881 5.24628 0.875842 5.08319 0.679624C5.00243 0.582466 4.90333 0.502165 4.79154 0.443307C4.67976 0.384448 4.55747 0.348184 4.43167 0.336585C4.1776 0.31316 3.92463 0.391624 3.72841 0.554715C2.74291 1.33291 1.94222 2.31994 1.38398 3.44473C0.825736 4.56952 0.523831 5.80409 0.5 7.05957C0.523831 8.31505 0.825736 9.54962 1.38398 10.6744C1.94222 11.7992 2.74291 12.7862 3.72841 13.5644C3.82557 13.6452 3.93768 13.706 4.05834 13.7434C4.17901 13.7809 4.30586 13.7942 4.43167 13.7826C4.55747 13.771 4.67976 13.7347 4.79154 13.6758C4.90333 13.617 5.00243 13.5367 5.08319 13.4395C5.16394 13.3424 5.22477 13.2303 5.26219 13.1096C5.29962 12.9889 5.31291 12.8621 5.30132 12.7363C5.28972 12.6105 5.25345 12.4882 5.19459 12.3764C5.13574 12.2646 5.05544 12.1655 4.95828 12.0847C4.19118 11.4859 3.56599 10.7249 3.12746 9.8561C2.68893 8.98735 2.44792 8.03238 2.42167 7.05957Z" fill="#42F88B"/>
    <path d="M15.0471 2.486C14.8505 2.35538 14.6127 2.30168 14.3791 2.33512C14.1455 2.36857 13.9323 2.48683 13.7803 2.66735C13.6283 2.84788 13.548 3.07804 13.5548 3.31394C13.5616 3.54985 13.655 3.77501 13.8172 3.94647C14.292 4.31812 14.6793 4.78964 14.9516 5.32762C15.2239 5.8656 15.3746 6.45689 15.393 7.05958C15.3746 7.66228 15.2239 8.25356 14.9516 8.79154C14.6793 9.32952 14.292 9.80104 13.8172 10.1727C13.6685 10.2998 13.5622 10.4693 13.5124 10.6585C13.4626 10.8476 13.4718 11.0475 13.5386 11.2313C13.6055 11.4152 13.7268 11.5742 13.8865 11.6872C14.0462 11.8002 14.2365 11.8618 14.4321 11.8638C14.6578 11.8615 14.8755 11.7799 15.0471 11.6332C15.7403 11.0865 16.3034 10.3926 16.6956 9.60157C17.0877 8.81058 17.2992 7.94232 17.3146 7.05958C17.2992 6.17685 17.0877 5.30858 16.6956 4.5176C16.3034 3.72661 15.7403 3.03268 15.0471 2.486ZM7.47568 2.6013C7.31167 2.40906 7.07853 2.28916 6.82675 2.26758C6.57498 2.246 6.32484 2.32447 6.13051 2.486C5.43725 3.03268 4.87417 3.72661 4.482 4.5176C4.08983 5.30858 3.87838 6.17685 3.86293 7.05958C3.87838 7.94232 4.08983 8.81058 4.482 9.60157C4.87417 10.3926 5.43725 11.0865 6.13051 11.6332C6.32484 11.7947 6.57498 11.8732 6.82675 11.8516C7.07853 11.83 7.31167 11.7101 7.47568 11.5179C7.63721 11.3235 7.71568 11.0734 7.6941 10.8216C7.67252 10.5698 7.55262 10.3367 7.36038 10.1727C6.88555 9.80104 6.49827 9.32952 6.22596 8.79154C5.95365 8.25356 5.80297 7.66228 5.78461 7.05958C5.80297 6.45689 5.95365 5.8656 6.22596 5.32762C6.49827 4.78964 6.88555 4.31812 7.36038 3.94647C7.55262 3.78247 7.67252 3.54933 7.6941 3.29755C7.71568 3.04578 7.63721 2.79563 7.47568 2.6013Z" fill="#42F88B"/>
    <path d="M17.4491 0.554712C17.352 0.473958 17.2399 0.413131 17.1192 0.375704C16.9985 0.338277 16.8717 0.324984 16.7459 0.336583C16.6201 0.348181 16.4978 0.384446 16.386 0.443304C16.2742 0.502163 16.1751 0.582463 16.0944 0.679621C16.0136 0.776779 15.9528 0.888891 15.9154 1.00956C15.8779 1.13022 15.8646 1.25708 15.8762 1.38288C15.8878 1.50868 15.9241 1.63097 15.983 1.74276C16.0418 1.85454 16.1221 1.95364 16.2193 2.0344C16.9864 2.63324 17.6116 3.39428 18.0501 4.26304C18.4886 5.13179 18.7296 6.08676 18.7559 7.05957C18.7296 8.03238 18.4886 8.98735 18.0501 9.8561C17.6116 10.7249 16.9864 11.4859 16.2193 12.0847C16.0231 12.2478 15.8997 12.4822 15.8762 12.7363C15.8528 12.9903 15.9313 13.2433 16.0944 13.4395C16.2575 13.6357 16.4918 13.7591 16.7459 13.7826C17 13.806 17.2529 13.7275 17.4491 13.5644C18.4346 12.7862 19.2353 11.7992 19.7936 10.6744C20.3518 9.54962 20.6537 8.31505 20.6776 7.05957C20.6537 5.80409 20.3518 4.56952 19.7936 3.44472C19.2353 2.31993 18.4346 1.33291 17.4491 0.554712Z" fill="#42F88B"/>
</svg>
