<svg width="22" height="22" viewBox="0 0 22 22">
<path d="M0.790751 7.61376C1.26885 6.13749 2.05426 4.77924 3.09524 3.62845C3.18128 3.53337 3.29364 3.466 3.41805 3.43489C3.54245 3.40379 3.6733 3.41036 3.79396 3.45377L6.27572 4.34141C6.4524 4.4045 6.64068 4.42841 6.82752 4.4115C7.01436 4.39458 7.19528 4.33724 7.35776 4.24345C7.52023 4.14966 7.66036 4.02166 7.76845 3.86832C7.87654 3.71499 7.94999 3.53998 7.98371 3.35543L8.45599 0.759809C8.47887 0.633455 8.53882 0.516766 8.62822 0.424596C8.71763 0.332427 8.83244 0.268946 8.95804 0.242237C10.4743 -0.0807456 12.0417 -0.0807456 13.558 0.242237C13.6836 0.268946 13.7984 0.332427 13.8878 0.424596C13.9772 0.516766 14.0371 0.633455 14.06 0.759809L14.5336 3.35543C14.5673 3.53998 14.6408 3.71499 14.7488 3.86832C14.8569 4.02166 14.9971 4.14966 15.1595 4.24345C15.322 4.33724 15.5029 4.39458 15.6898 4.4115C15.8766 4.42841 16.0649 4.4045 16.2416 4.34141L18.7246 3.45377C18.8452 3.4108 18.9759 3.40458 19.1 3.4359C19.2242 3.46723 19.3363 3.53469 19.422 3.62975C20.4624 4.78027 21.2474 6.13806 21.7252 7.61376C21.7647 7.73565 21.7671 7.86651 21.732 7.98975C21.697 8.11299 21.6262 8.22306 21.5286 8.30601L19.5165 10.014C19.3736 10.1355 19.2588 10.2866 19.18 10.4568C19.1013 10.6271 19.0605 10.8124 19.0605 11C19.0605 11.1875 19.1013 11.3729 19.18 11.5431C19.2588 11.7134 19.3736 11.8645 19.5165 11.9859L21.5286 13.6939C21.6262 13.7769 21.697 13.8869 21.732 14.0102C21.7671 14.1334 21.7647 14.2643 21.7252 14.3862C21.2475 15.8623 20.4626 17.2206 19.422 18.3715C19.336 18.4666 19.2236 18.5339 19.0992 18.5651C18.9748 18.5962 18.844 18.5896 18.7233 18.5462L16.2416 17.6585C16.0649 17.5954 15.8766 17.5715 15.6898 17.5884C15.5029 17.6054 15.322 17.6627 15.1595 17.7565C14.9971 17.8503 14.8569 17.9783 14.7488 18.1316C14.6408 18.285 14.5673 18.46 14.5336 18.6445L14.0587 21.2414C14.0357 21.3674 13.9758 21.4837 13.8867 21.5756C13.7975 21.6675 13.6831 21.7309 13.558 21.7577C12.0417 22.0808 10.4743 22.0808 8.95804 21.7577C8.83244 21.731 8.71763 21.6675 8.62822 21.5753C8.53882 21.4832 8.47887 21.3665 8.45599 21.2401L7.98371 18.6445C7.94999 18.46 7.87654 18.285 7.76845 18.1316C7.66036 17.9783 7.52023 17.8503 7.35776 17.7565C7.19528 17.6627 7.01436 17.6054 6.82752 17.5884C6.64068 17.5715 6.4524 17.5954 6.27572 17.6585L3.79267 18.5462C3.67205 18.5891 3.5414 18.5954 3.41725 18.564C3.29309 18.5327 3.18103 18.4653 3.09524 18.3702C2.05485 17.2197 1.26989 15.8619 0.792045 14.3862C0.752601 14.2643 0.750236 14.1334 0.78525 14.0102C0.820264 13.8869 0.89108 13.7769 0.988722 13.6939L3.00078 11.9859C3.14372 11.8645 3.25853 11.7134 3.33727 11.5431C3.41601 11.3729 3.45679 11.1875 3.45679 11C3.45679 10.8124 3.41601 10.6271 3.33727 10.4568C3.25853 10.2866 3.14372 10.1355 3.00078 10.014L0.988722 8.30601C0.89108 8.22306 0.820264 8.11299 0.78525 7.98975C0.750236 7.86651 0.752601 7.73565 0.792045 7.61376H0.790751ZM2.16361 7.60599L3.83796 9.02673C4.12427 9.26967 4.35428 9.572 4.51204 9.91274C4.66979 10.2535 4.7515 10.6245 4.7515 11C4.7515 11.3755 4.66979 11.7465 4.51204 12.0872C4.35428 12.4279 4.12427 12.7303 3.83796 12.9732L2.16361 14.394C2.54144 15.4058 3.08748 16.3478 3.77455 17.1785L5.83967 16.4409C6.19311 16.3148 6.56977 16.267 6.94352 16.3009C7.31728 16.3348 7.67918 16.4496 8.00415 16.6373C8.32912 16.825 8.60937 17.0812 8.82547 17.388C9.04157 17.6948 9.18836 18.045 9.25564 18.4142L9.65029 20.5725C10.7148 20.7499 11.8012 20.7499 12.8657 20.5725L13.2604 18.4116C13.3278 18.0425 13.4747 17.6925 13.6909 17.3858C13.907 17.0791 14.1873 16.8231 14.5123 16.6356C14.8372 16.448 15.1991 16.3333 15.5727 16.2995C15.9464 16.2656 16.323 16.3135 16.6763 16.4397L18.7427 17.1785C19.4311 16.3465 19.9755 15.4054 20.3537 14.394L18.6793 12.9732C18.3926 12.7305 18.1623 12.4283 18.0042 12.0875C17.8462 11.7467 17.7644 11.3756 17.7644 11C17.7644 10.6243 17.8462 10.2532 18.0042 9.91245C18.1623 9.57167 18.3926 9.26942 18.6793 9.02673L20.3537 7.60599C19.9756 6.59455 19.4311 5.65341 18.7427 4.82146L16.6776 5.559C16.3243 5.68517 15.9477 5.733 15.574 5.69918C15.2004 5.66535 14.8385 5.55067 14.5136 5.36308C14.1886 5.1755 13.9083 4.9195 13.6922 4.61283C13.476 4.30615 13.3291 3.95614 13.2616 3.58705L12.8657 1.42748C11.8012 1.25 10.7147 1.25 9.65029 1.42748L9.25694 3.58705C9.18965 3.95625 9.04287 4.30641 8.82677 4.61323C8.61066 4.92006 8.33041 5.17621 8.00544 5.36393C7.68048 5.55165 7.31857 5.66644 6.94482 5.70035C6.57106 5.73425 6.1944 5.68646 5.84096 5.56029L3.77455 4.82146C3.08622 5.65342 2.54174 6.59456 2.16361 7.60599ZM8.02382 11C8.02382 10.142 8.36463 9.31925 8.97128 8.7126C9.57793 8.10596 10.4007 7.76515 11.2586 7.76515C12.1166 7.76515 12.9394 8.10596 13.546 8.7126C14.1527 9.31925 14.4935 10.142 14.4935 11C14.4935 11.8579 14.1527 12.6807 13.546 13.2873C12.9394 13.894 12.1166 14.2348 11.2586 14.2348C10.4007 14.2348 9.57793 13.894 8.97128 13.2873C8.36463 12.6807 8.02382 11.8579 8.02382 11ZM9.31775 11C9.31775 11.5147 9.52224 12.0084 9.88622 12.3724C10.2502 12.7364 10.7439 12.9409 11.2586 12.9409C11.7734 12.9409 12.2671 12.7364 12.6311 12.3724C12.9951 12.0084 13.1995 11.5147 13.1995 11C13.1995 10.4852 12.9951 9.99154 12.6311 9.62755C12.2671 9.26356 11.7734 9.05908 11.2586 9.05908C10.7439 9.05908 10.2502 9.26356 9.88622 9.62755C9.52224 9.99154 9.31775 10.4852 9.31775 11Z" fill="white"/>
</svg>
