<svg width="35" height="70" viewBox="0 0 35 70">
<path d="M5.78978 68.4998L5.80109 68.4996L5.81241 68.4997C6.33548 68.5014 6.8523 68.386 7.32489 68.1619C7.79671 67.9382 8.21247 67.6117 8.5417 67.2066C8.54221 67.2059 8.54272 67.2053 8.54324 67.2047L32.694 37.2119L32.6988 37.2059L32.7037 37.2C33.2186 36.5738 33.5 35.7884 33.5 34.978C33.5 34.169 33.2197 33.3851 32.7067 32.7595C32.7057 32.7583 32.7047 32.7571 32.7037 32.7559L7.70565 2.76652L7.70442 2.76505C7.10992 2.04998 6.25554 1.60021 5.32919 1.51482C4.40283 1.42944 3.48055 1.71545 2.76523 2.30984C2.04993 2.90421 1.6002 3.75823 1.51482 4.68397C1.42949 5.60927 1.71514 6.53063 2.30908 7.24554C2.30935 7.24587 2.30962 7.2462 2.3099 7.24653L24.6623 34.0421L25.4503 34.9867L24.6783 35.9444L3.07437 62.7419L3.06674 62.7513L3.05895 62.7607C2.63089 63.2744 2.35901 63.8999 2.27544 64.5631C2.19186 65.2263 2.30006 65.8997 2.58728 66.5034C2.8745 67.1071 3.32872 67.616 3.89627 67.9698C4.46382 68.3237 5.12091 68.5076 5.78978 68.4998Z" fill="white"/>
</svg>
