<svg width="22" height="20" viewBox="0 0 22 20" fill="none" xmlns="http://www.w3.org/2000/svg">
<path d="M20.2929 13.7071C20.6834 14.0976 21.3166 14.0976 21.7071 13.7071C22.0976 13.3166 22.0976 12.6834 21.7071 12.2929L20.2929 13.7071ZM15.7071 6.29291C15.3166 5.90238 14.6834 5.90238 14.2929 6.29291C13.9024 6.68343 13.9024 7.3166 14.2929 7.70712L15.7071 6.29291ZM21.7071 7.70712C22.0976 7.3166 22.0976 6.68343 21.7071 6.29291C21.3166 5.90238 20.6834 5.90238 20.2929 6.29291L21.7071 7.70712ZM14.2929 12.2929C13.9024 12.6834 13.9024 13.3166 14.2929 13.7071C14.6834 14.0976 15.3166 14.0976 15.7071 13.7071L14.2929 12.2929ZM5.586 6.00001L5.586 7.00002L5.58955 7.00001L5.586 6.00001ZM6.293 5.69501L7.01798 6.38378C7.02603 6.37531 7.03393 6.3667 7.04168 6.35795L6.293 5.69501ZM9.293 2.30701L8.57174 1.61434C8.56241 1.62407 8.55326 1.63398 8.54432 1.64408L9.293 2.30701ZM9.284 17.683L8.53608 18.3468C8.5419 18.3534 8.54782 18.3599 8.55382 18.3663L9.284 17.683ZM6.294 14.314L7.04192 13.6502C7.0372 13.6449 7.03243 13.6396 7.02759 13.6344L6.294 14.314ZM5.578 14L5.58098 13H5.578V14ZM21.7071 12.2929L15.7071 6.29291L14.2929 7.70712L20.2929 13.7071L21.7071 12.2929ZM20.2929 6.29291L14.2929 12.2929L15.7071 13.7071L21.7071 7.70712L20.2929 6.29291ZM2 12.959V7.04001H0V12.959H2ZM2 7.04001C2 7.01656 2.00837 7.00355 2.01385 6.99785C2.01653 6.99506 2.01706 6.99559 2.01375 6.99705C2.00963 6.99886 2.00418 7.00001 2 7.00001V5.00001C0.859063 5.00001 0 5.95111 0 7.04001H2ZM2 7.00001H5.586V5.00001H2V7.00001ZM5.58955 7.00001C5.85692 6.99906 6.12132 6.94397 6.36682 6.83806L5.5746 5.00166C5.57708 5.00059 5.57975 5.00003 5.58245 5.00002L5.58955 7.00001ZM6.36682 6.83806C6.61232 6.73215 6.83383 6.57762 7.01798 6.38378L5.56802 5.00624C5.56988 5.00429 5.57212 5.00272 5.5746 5.00166L6.36682 6.83806ZM7.04168 6.35795L10.0417 2.96995L8.54432 1.64408L5.54432 5.03208L7.04168 6.35795ZM10.0143 2.99968C10.0226 2.99097 10.0253 2.99063 10.0208 2.99302C10.0166 2.99531 10.0102 2.99773 10.0029 2.99904C9.98876 3.00159 9.9834 2.99819 9.98664 2.99959C9.98992 3.00101 9.99257 3.00349 9.99376 3.00524C9.99413 3.00579 9.99517 3.00737 9.99635 3.01123C9.99747 3.01487 10 3.02473 10 3.04301H12C12 1.30391 9.88637 0.245462 8.57174 1.61434L10.0143 2.99968ZM10 3.04301V16.957H12V3.04301H10ZM10 16.957C10 16.9757 9.99739 16.9857 9.99629 16.9893C9.99511 16.9931 9.99412 16.9946 9.99386 16.995C9.99287 16.9964 9.99041 16.9988 9.98715 17.0002C9.98393 17.0015 9.98933 16.9981 10.0035 17.0008C10.0108 17.0022 10.0171 17.0047 10.0213 17.007C10.0256 17.0094 10.0228 17.0089 10.0142 16.9998L8.55382 18.3663C9.85899 19.7611 12 18.7101 12 16.957H10ZM10.0319 17.0192L7.04192 13.6502L5.54608 14.9778L8.53608 18.3468L10.0319 17.0192ZM7.02759 13.6344C6.84291 13.4351 6.61917 13.2759 6.37029 13.1667L5.56705 14.9983C5.56453 14.9972 5.56227 14.9956 5.56041 14.9936L7.02759 13.6344ZM6.37029 13.1667C6.12141 13.0576 5.85273 13.0008 5.58098 13L5.57502 15C5.57228 15 5.56956 14.9994 5.56705 14.9983L6.37029 13.1667ZM5.578 13H2V15H5.578V13ZM2 13C2.00418 13 2.00967 13.0012 2.01385 13.003C2.01723 13.0045 2.01674 13.0051 2.01408 13.0023C2.00869 12.9967 2 12.9834 2 12.959H0C0 14.0483 0.85845 15 2 15V13Z" fill="white"/>
</svg>
