<svg id="Layer_1" data-name="Layer 1" xmlns="http://www.w3.org/2000/svg" viewBox="0 0 662.5 662.5">
  <path d="M609,43.7H141A97.3,97.3,0,0,0,43.7,141V609A97.3,97.3,0,0,0,141,706.3H609A97.3,97.3,0,0,0,706.3,609V141A97.3,97.3,0,0,0,609,43.7ZM199.7,162.6c10.1-13.4,22.6-24.3,35.7-34.6,18.8-14.9,40.3-24.3,63.6-29.9a365.3,365.3,0,0,1,43-7.8,226.2,226.2,0,0,1,32.9-2c33.8.5,66.8,5.6,98.8,16.8,18.7,6.6,35.1,17.3,50.1,30.3,13.2,11.5,25.4,23.7,34.5,38.8,10.7,17.7,18.8,36.3,23,56.5,3,14,3.8,28.2,4.2,42.4.1,3.2,0,6.3,0,9.5s-.5,2.9-2.8,2.7L556.1,284l-30.7-1.2c-16.2-.7-32.3-1.5-48.5-2-10.4-.4-20.7-.3-31.1-.5-43.8-1-87.7-.6-131.5-.3-12.7.1-25.5.3-38.2.7-20.7.6-41.4,1.5-62.1,2.4l-34.2,1.5-12.8.7c-1.6.1-2.4-.3-2.4-2.1C162.9,239.1,172.9,198.3,199.7,162.6ZM161.3,600.8c-4.6-2.3-9.1-4.9-13.8-7.2-2.3-1.1-3.3-2.4-3.3-5.1-.2-14.1-.5-28.2-.8-42.3l-1.5-72.9L140.7,412q-.6-36.5-1.4-72.9a13.3,13.3,0,0,1,1.3-6.5c4.4-9.2,8.7-18.5,13-27.8.5-1.1.8-2.5,2.4-3.6q4.5,150.8,9,300.7C163.2,602.3,162.3,601.3,161.3,600.8Zm148.1,50.4c-1.6.4-3-.5-4.5-1l-92.1-30.4-34.3-11.4c-3-1-3.1-1.1-2.4-3.8,6-23.9,10.3-48.2,18.2-71.7a356,356,0,0,1,13.8-36c3.8-8.1,8.3-15.7,14.7-22.1a56.8,56.8,0,0,1,9.4-7.4c8.3-5.1,16.8-4.8,25.3-.3s14.7,11.1,19.9,19.1c6.4,9.8,10.1,20.6,13.5,31.7,5.3,17,8.3,34.5,11.1,52.1,3.2,20.9,5,41.9,6.4,63,.4,5.4.9,10.8,1.3,16.2A2.4,2.4,0,0,1,309.4,651.2Zm261.7-42.7-78.9,26.1c-15.7,5.2-31.4,10.5-47.2,15.6-1.4.5-2.8,1.4-4.7,1l.6-11.2c1-12.7,2-25.4,3.1-38.1s2.9-24.3,4.7-36.3a318.4,318.4,0,0,1,13.6-57.7,91.4,91.4,0,0,1,14.3-27.3,48.6,48.6,0,0,1,16-13.6c8.3-4.4,16.7-4.7,25,.3a55.8,55.8,0,0,1,19.5,20.6c6.4,11.1,10.8,23.1,15.2,35,7,18.7,11.4,38.1,15.9,57.5,1.8,7.8,3.7,15.5,5.5,23.2C574.6,607.4,574.6,607.4,571.1,608.5Zm8.8-235.6c-17.5,4.5-34.6,10-51,17.6a169,169,0,0,0-39.4,25.4c-11,9.5-18.5,21.4-24.2,34.6-6.7,15.5-11.3,31.8-15.6,48.1q-9.1,34.2-15.1,69.2a355.3,355.3,0,0,0-4.4,39.9c-.9,15.3-2,30.5-2.9,45.8-.1,1.9-1,2.7-2.7,3.2l-14.8,4.6c-2.7.8-2.9.7-2.8-2.3.5-11.9,1.1-23.9,1.6-35.8l2.7-60.5q1.5-30.2,2.9-60.1c1-19.9,1.8-39.8,2.7-59.7l3-61.3c.3-5.9.6-11.7.7-17.5.1-2.2.8-2.9,3-3.1,13.5-.9,27-2,40.5-3.1a448.2,448.2,0,0,0,85.1-16l20.6-5.9c1.9-.5,2.6-1.3,2.5-3.3-.1-3.8,0-7.7,0-11.5s-.1-3.1-3.1-3.2l-32.2-.9c-29.9-.7-59.8-1.8-89.7-2.1s-60.6-1.5-90.8-.7c-20.8.5-41.5.2-62.2.9l-18.3.4c-25.9.6-51.8,1.1-77.7,1.8-5.9.1-11.7.5-17.6.6-2.9.1-2.9.1-2.9,3.3s.1,7.4-.1,11.1.9,3.2,3,3.8c14,4,28,7.9,42.2,11.4a367.2,367.2,0,0,0,52,9c15.4,1.5,30.7,3,46,4,2.7.1,5.9-.2,7.7,1.2s.8,4.7.9,7.2c.8,15.5,1.5,31,2.2,46.5.9,19,1.9,38,2.8,56.9.7,15.4,1.3,30.8,2,46.2l3.6,74.1,3,68a2.4,2.4,0,0,1-.2.8,2.6,2.6,0,0,1-2.3-.1l-15.2-4.7c-2-.5-2.6-1.5-2.7-3.6-1-16.8-2.2-33.7-3.2-50.5-1.3-21.4-5.1-42.4-9.6-63.3-5.1-24.6-11.1-48.9-19.1-72.8-3.7-11.1-8.1-21.8-14.3-31.8s-17-20.3-27.9-28.1c-18.5-13.4-39.2-22.1-60.9-28.7-5.8-1.8-11.7-3.4-17.6-5-3.7-1-3.7-1-3.8-5l-.9-45.9c-.1-8.5-.4-17-.5-25.5-.1-3.4,0-3.4,3.5-3.7,6.4-.3,12.8-.3,19.1-.7,10.8-.6,21.5-.8,32.3-1.2l31-1.4c36.3-1.6,72.5-1.6,108.8-1.9,31.2-.3,62.4.3,93.7.6,16.3.1,32.6.8,48.9,1.4q30,1,59.8,2.5l19.1.7c3.9.2,4,.3,3.9,4.1-.4,23.9-.9,47.8-1.3,71.7C583.6,371.9,583.6,372,579.9,372.9ZM610.7,339c-.5,26.6-1.1,53.1-1.6,79.7l-1.8,96c-.5,24.8-1.1,49.6-1.6,74.5a3.9,3.9,0,0,1-2.4,4c-5.9,2.9-11.7,6.1-18.3,9.5,3-100.9,6-201,9-301.1,1.4-.2,1.3,1,1.7,1.7,4.7,10,9.3,20,14,29.9A11.7,11.7,0,0,1,610.7,339Z" transform="translate(-43.7 -43.7)" style="fill: #fff"/>
</svg>
