<svg id="Layer_1" data-name="Layer 1" xmlns="http://www.w3.org/2000/svg" xmlns:xlink="http://www.w3.org/1999/xlink" viewBox="0 0 750 750">
  <defs>
    <radialGradient id="Dégradé_sans_nom_38" data-name="Dégradé sans nom 38" cx="375" cy="375" r="375" gradientUnits="userSpaceOnUse">
      <stop offset="0" stop-color="#1d1d1b"/>
      <stop offset="0.29" stop-color="#272725"/>
      <stop offset="1" stop-color="#3c3c3b"/>
    </radialGradient>
  </defs>
  <rect width="750" height="750" rx="137.6" style="fill: url(#Dégradé_sans_nom_38)"/>
  <path d="M374.9,50.5c38.3.5,75.6,6.3,111.8,19,21.2,7.5,39.8,19.6,56.7,34.3,15,12.9,28.8,26.8,39.1,43.9,12.1,20,21.3,38.1,26.1,61,3.3,15.8,4.3,31.8,4.7,47.9.1,3.6,0,7.2,0,10.8s-.6,3.3-3.1,3.1L580,269l-34.7-1.4-55-2.3c-11.7-.3-23.4-.3-35.1-.5-49.7-1.1-99.3-.7-148.9-.3-14.4.1-28.9.3-43.3.7-23.4.8-46.9,1.8-70.3,2.8L154,269.7l-14.4.8c-1.9.1-2.7-.4-2.8-2.4-1.9-50,9.5-93.1,39.8-133.6,11.4-15.1,25.5-27.5,40.3-39.2,21.4-16.8,45.7-27.4,72-33.7a404.5,404.5,0,0,1,48.7-8.9C350,51.2,362.4,50.1,374.9,50.5Zm-36,648q-1.6-38.6-3.4-77.1c-1.3-27.9-2.8-55.9-4.1-83.8-.8-17.4-1.5-34.9-2.3-52.3-1-21.5-2.1-42.9-3.1-64.4-.9-17.6-1.6-35.2-2.5-52.7-.1-2.8,1-6.7-1-8.2s-5.7-1.1-8.7-1.3c-17.4-1.1-34.7-2.8-52.1-4.5A419.3,419.3,0,0,1,202.8,344c-16-4-31.9-8.4-47.8-12.9-2.3-.7-3.5-1.6-3.4-4.3s.1-8.4.1-12.6.1-3.6,3.4-3.7l19.8-.7c29.3-.8,58.7-1.4,88-2.1l20.7-.4c23.5-.8,46.9-.4,70.4-1,34.3-1,68.6.5,102.9.8s67.6,1.5,101.5,2.4l36.5,1c3.3.1,3.4.1,3.4,3.6s-.1,8.7.1,13.1c0,2.1-.7,3.1-2.9,3.7-7.8,2.1-15.6,4.4-23.3,6.6a509.5,509.5,0,0,1-96.3,18.1q-22.9,1.9-45.9,3.6c-2.5.2-3.3,1-3.3,3.4-.2,6.6-.6,13.2-.9,19.8-1.1,23.2-2.3,46.3-3.4,69.4s-1.9,45.1-3,67.6-2.2,45.4-3.3,68.1l-3,68.5c-.6,13.5-1.3,27-1.9,40.5-.1,3.3.1,3.5,3.2,2.6l16.8-5.2a3.5,3.5,0,0,0,3-3.7c1-17.2,2.3-34.5,3.3-51.7a404.6,404.6,0,0,1,4.9-45.3c4.6-26.4,10.2-52.5,17.1-78.3,4.9-18.5,10.1-36.8,17.7-54.4,6.4-15,15-28.5,27.4-39.2a194.4,194.4,0,0,1,44.6-28.8c18.6-8.6,38-14.8,57.8-19.9,4.1-1.1,4.1-1.1,4.2-4.8.5-27.1,1.1-54.2,1.5-81.2.1-4.4.1-4.4-4.4-4.6l-21.6-.9c-22.6-1.1-45.1-1.9-67.6-2.8-18.5-.6-37-1.4-55.5-1.6-35.3-.3-70.7-1-106-.7-41.1.4-82.1.4-123.2,2.2-11.7.6-23.4,1.2-35.1,1.6s-24.4.6-36.5,1.3c-7.2.5-14.5.5-21.7.9-3.9.2-4,.3-3.9,4.2.1,9.6.4,19.2.6,28.8l.9,51.9c.1,4.6.1,4.6,4.3,5.7,6.7,1.9,13.4,3.6,20,5.7,24.5,7.5,47.9,17.3,68.9,32.4,12.3,8.9,23.4,18.9,31.5,31.9,7.1,11.3,12.1,23.5,16.3,36,9,27,15.8,54.6,21.7,82.4,5,23.6,9.3,47.4,10.7,71.7,1.1,19,2.5,38.1,3.7,57.1.1,2.3.8,3.5,3,4.1l17.2,5.3a3,3,0,0,0,2.6.1A4.1,4.1,0,0,0,338.9,698.5Zm-37.8-13.1L299.6,667c-1.6-23.8-3.6-47.6-7.3-71.2-3.1-19.9-6.5-39.7-12.5-59-3.9-12.6-8.1-24.9-15.3-36-5.8-9-13-16.5-22.5-21.6s-19.2-5.4-28.7.5a56.2,56.2,0,0,0-10.6,8.3c-7.2,7.2-12.4,15.8-16.6,25a403.6,403.6,0,0,0-15.7,40.8c-8.9,26.5-13.7,54.1-20.6,81.2-.8,3-.6,3.1,2.8,4.2l38.8,12.9,104.3,34.4c1.6.6,3.2,1.7,5.1,1.2A3.7,3.7,0,0,0,301.1,685.4Zm153.2,1.2,53.4-17.7L597,639.4c3.9-1.3,3.9-1.4,2.9-5.6-2-8.7-4.1-17.5-6.2-26.3-5.1-21.9-10.1-43.9-18-65.1-5-13.5-9.9-27-17.1-39.6a64.4,64.4,0,0,0-22.2-23.3c-9.3-5.7-18.8-5.3-28.3-.4a55.6,55.6,0,0,0-18,15.4,103.4,103.4,0,0,0-16.3,31c-7.3,21.2-12,43.1-15.4,65.2-2,13.7-4.1,27.4-5.3,41.1s-2.3,28.8-3.5,43.2c-.3,4.1-.4,8.3-.7,12.6C451,688.1,452.6,687.1,454.3,686.6ZM124.4,295.5c-4.9,10.5-9.8,21-14.8,31.5a16.8,16.8,0,0,0-1.5,7.3q.9,41.4,1.7,82.6c.5,23.1.9,46.3,1.3,69.4.6,27.5,1.1,55.1,1.7,82.6.3,15.9.7,31.8.9,47.8,0,3,1.2,4.5,3.8,5.8,5.2,2.6,10.3,5.5,15.6,8.1,1.1.6,2.2,1.7,4.1,1.2Q132.3,462,127.1,291.4C125.2,292.7,125,294.3,124.4,295.5ZM633.5,622c2-1,2.7-2.3,2.7-4.6.5-28.1,1.2-56.2,1.7-84.3L640,424.4c.6-30,1.2-60.1,1.9-90.1a14.9,14.9,0,0,0-1.2-6.6l-15.9-33.8c-.4-.9-.3-2.2-1.9-2-3.4,113.3-6.8,226.6-10.2,340.9C620.2,628.9,626.8,625.3,633.5,622Z" style="fill: #fff"/>
</svg>
