<svg width="169" height="162" viewBox="0 0 169 162" fill="none" xmlns="http://www.w3.org/2000/svg">
<rect width="169" height="162" rx="25" fill="#242424"/>
<path d="M39.2416 48.171C40.2641 50.1081 41.1729 52.1022 42.1953 54.0962C42.4261 54.3723 42.7492 54.5546 43.1042 54.609C44.297 54.609 45.4899 54.4381 46.6827 54.4381C47.8756 54.4381 47.5348 54.0962 47.7052 53.5265C48.0714 51.6396 48.5455 49.7754 49.1252 47.9431C50.4317 49.7093 51.0565 51.5894 52.079 53.5265C52.1443 53.757 52.2879 53.9572 52.4851 54.0925C52.6822 54.2278 52.9204 54.2896 53.1582 54.2671H57.3616C57.5267 54.2319 57.6805 54.1563 57.8093 54.0469C57.9382 53.9376 58.0381 53.7979 58.1 53.6404C58.4408 52.6719 58.5544 51.5324 59.0088 50.5639H59.2929C59.6921 51.1475 60.0166 51.7791 60.2585 52.444C60.7697 54.0962 61.7922 54.609 63.4962 54.7229C66.6772 54.8938 69.9149 55.4066 72.8686 56.9449C73.9479 57.5146 74.5159 57.0588 74.3455 55.8054C72.9822 48.6838 63.8938 45.7781 58.2136 42.9295L54.2374 46.8037L53.9534 46.6897C53.9236 45.1442 54.0377 43.5992 54.2942 42.0749C54.351 41.3342 54.2374 40.9354 53.499 40.6506C52.8197 40.4291 52.1708 40.1229 51.5677 39.739C50.8861 39.2832 50.4885 39.5111 49.9773 40.0808C48.8494 41.3069 47.6344 42.4494 46.3419 43.4992C46.1147 41.5621 46.5691 39.9669 46.6259 38.0868C46.6105 37.9212 46.5624 37.7604 46.4843 37.6137C46.4063 37.467 46.3 37.3373 46.1715 37.2322C44.2402 36.1497 44.2402 36.1497 42.7634 37.7449C41.2865 39.3402 40.4345 40.3087 38.9008 41.5621C38.6736 39.1693 39.0712 37.0613 39.1848 34.7254C39.2187 34.6056 39.2277 34.4801 39.2114 34.3567C39.195 34.2333 39.1536 34.1145 39.0898 34.0077C39.0259 33.901 38.9409 33.8085 38.84 33.7359C38.7391 33.6634 38.6245 33.6123 38.5032 33.5859C36.5151 32.6174 32.9366 31.5918 35.0951 28.8002C52.8174 7.72011 83.4906 9.37234 96.6688 32.3895C115.584 68.1116 75.4815 101.783 42.877 80.8166C36.4583 76.9994 31.3461 71.9288 28.0516 65.092C27.3131 63.4398 26.7451 61.6736 26.1771 59.9645C26.0494 59.6863 25.9892 59.3818 26.0016 59.0759C26.0139 58.77 26.0984 58.4713 26.248 58.2045C26.3977 57.9376 26.6083 57.7101 26.8625 57.5407C27.1168 57.3713 27.4075 57.2647 27.7107 57.2297C30.4373 56.603 33.1638 55.9763 35.9471 55.4636C36.3048 55.4647 36.6498 55.3304 36.9131 55.0875C37.1764 54.8445 37.3385 54.5109 37.3671 54.1532C37.7376 52.1255 38.2501 50.1265 38.9008 48.171H39.2416ZM83.7747 31.0221C83.7747 30.0536 79.6849 29.6548 76.1063 30.2245C72.5278 30.7942 67.9836 33.5859 69.3469 34.3266C70.6167 35.0588 72.0205 35.5269 73.4746 35.7031C74.9287 35.8793 76.4033 35.7599 77.8104 35.3521C81.3322 34.3835 83.7747 31.9337 83.7747 31.0221Z" fill="white"/>
<path d="M111.033 96.21C123.513 88.1433 134.827 92.8583 142 105.015C138.326 107.458 134.594 109.73 130.686 111.889C125.526 114.697 119.595 115.867 113.72 115.235C107.845 114.604 102.319 112.203 97.9114 108.367C92.0212 115.127 87.6473 122.455 87.0642 131.715C94.4123 129.045 99.2527 131.146 105.784 134.498C107.767 135.521 109.225 137.111 110.566 138.872C111.662 140.271 112.871 141.582 114.182 142.792C115.115 143.644 115.465 144.439 115.115 145.462C114.765 146.484 113.949 146.996 112.608 146.996H47.466C45.1916 147.109 44.0836 144.951 45.5415 143.246L50.7319 135.975C51.1401 135.407 54.7558 131.487 56.8553 130.862C59.2767 130.245 61.8497 130.571 64.0284 131.771C66.6123 133.189 69.4738 134.06 72.4263 134.328C73.3011 134.384 73.7093 134.214 73.9425 133.248C75.7145 125.751 78.7072 118.578 82.8069 112.002C83.3318 111.207 91.613 100.925 93.0709 99.5048C94.5289 98.0846 96.2785 96.8917 97.6781 95.3579C101.527 90.8701 98.7861 86.4959 95.4037 82.4626L102.402 73.7143C105.632 75.4346 108.564 77.6392 111.091 80.2471C111.325 80.5312 114.007 84.5645 114.182 85.4734C115.349 89.5635 113.482 92.9152 111.033 96.21Z" fill="white"/>
</svg>
