<?xml version="1.0" encoding="utf-8"?>
<!-- Generator: Adobe Illustrator 24.2.1, SVG Export Plug-In . SVG Version: 6.00 Build 0)  -->
<svg version="1.1" xmlns="http://www.w3.org/2000/svg" xmlns:xlink="http://www.w3.org/1999/xlink" x="0px" y="0px"
	 viewBox="0 0 2393 744" style="enable-background:new 0 0 2393 744;" xml:space="preserve">
<style type="text/css">
	.st0{fill:#D3A187;}
	.st1{fill:#55230D;}
	.st2{fill:#FFFFFF;}
</style>
<g id="ORIGINAL">
	<path id="chocolat_brun" class="st0" d="M2090.4-1249.3l10.1-209.3h-1200h-1193v232c0,0,21.4-7.2,35.1,16.2
		c13.7,23.4-8.9,97.7-8.9,114.6s7.3,64.6,46,62.2s31.5-47.6,28.3-58.1c-3.2-10.5-19.4-46-18.6-64.6c0.8-18.6,15.3-37.1,29.9-37.1
		s25.8,11.3,22.6,30.7s-7.3,54.1,14.5,58.1c21.8,4,25-22.6,24.2-32.3c-0.8-9.7-9.7-60.5-6.5-73.5c3.2-12.9,8.9-41.2,36.3-41.2
		c27.4,0,43.6,24.2,42.8,42.8c-0.8,18.6-10.5,71,8.9,74.3c19.4,3.2,26.6-25.8,26.6-39.6c0-13.7-15.3-71.8,34.7-70.2
		c50,1.6,42,54.9,37.1,68.6c-4.8,13.7-15.3,81.5,21,86.4c36.3,4.8,16.1-75.1,12.9-85.6s-15.3-47.7-4-65.8s25.8-31,42-27
		c16.1,4,22.6,36.3,18.6,52.5c-4,16.1-9.7,47.6,15.3,51.7c25,4,29.9-33.1,21.8-57.3c-8.1-24.2,7.3-51.7,29.1-50.9
		c21.8,0.8,36.3,16.1,36.3,46.8c0,30.7-9.7,67,8.9,71.8s27.4-23.4,22.6-58.1s12.9-55.7,33.9-55.7c0,0,44.8-5.8,37.4,74.5
		c-7.4,80.3-7.4,97.2,30,95c39.1-2.4,21.8-98.8,18-123.3s9-51.6,27.6-50.7c18.7,0.9,34.4,7.9,27.7,40.2c-6.7,32.4,5,39.7,16.6,40.5
		s32.1-9,24.2-46.4c-7.9-37.3,12.8-47.5,24.5-47.5c11.7,0,34.1,14.8,35,30.3s-9.8,34.9-9,58.3c0.8,23.3,4.3,40.4,25.1,42.4
		c20.8,2,24.6-23.1,18.8-47.7c-5.8-24.6-3.8-51.8,19.8-49.7c23.6,2,36.5,24.4,33.2,42.6c-3.3,18.3-17.8,65.2,10.2,69.3
		s41.4-31.2,33.5-57.6c-7.9-26.4-16.6-71.1,2.2-79.9c18.8-8.9,29,33,25.9,67.1s-0.3,41.4,9.6,42.4c9.9,1,17-6.6,17-18
		s-3-68.5,17-68.5c20,0,25.4,23.5,24.6,43c-0.8,19.4,0,39.2,19.8,39s17.3-44.2,31.7-40.6c14.5,3.6,19.8,18,18.8,42.9
		c-1,24.9,4.6,32.8,17.5,33.8c12.9,1,26.4-12.2,25.1-29.7c-1.3-17.5-5.1-33.5-2.5-37.8c0.8-1.3,1.5-2.5,2.3-3.5v10.1
		c0,0,21.4-37.2,35.1-13.8c13.7,23.4-8.9,97.7-8.9,114.6s7.3,64.6,46,62.2c38.7-2.4,31.5-47.6,28.3-58.1
		c-3.2-10.5-19.4-46-18.6-64.6c0.8-18.6,15.3-37.1,29.9-37.1s25.8,11.3,22.6,30.7s-7.3,54.1,14.5,58.1c21.8,4,25-22.6,24.2-32.3
		s-9.7-60.5-6.5-73.5c3.2-12.9,8.9-41.2,36.3-41.2s43.6,24.2,42.8,42.8c-0.8,18.6-10.5,71,8.9,74.3c19.4,3.2,26.6-25.8,26.6-39.6
		c0-13.7-15.3-71.8,34.7-70.2c50,1.6,42,54.9,37.1,68.6c-4.8,13.7-15.3,81.5,21,86.4c36.3,4.8,16.1-75.1,12.9-85.6
		c-3.2-10.5-15.3-47.7-4-65.8s25.8-31,42-27c16.1,4,22.6,36.3,18.6,52.5c-4,16.1-9.7,47.6,15.3,51.7c25,4,29.9-33.1,21.8-57.3
		c-8.1-24.2,7.3-51.7,29.1-50.9s36.3,16.1,36.3,46.8c0,30.7-9.7,67,8.9,71.8c18.6,4.8,27.4-23.4,22.6-58.1s12.9-55.7,33.9-55.7
		c0,0,44.8-5.8,37.4,74.5c-7.4,80.3-7.4,97.2,30,95c39.1-2.4,21.8-98.8,18-123.3c-3.8-24.4,9-51.6,27.6-50.7
		c18.7,0.9,34.4,7.9,27.7,40.2c-6.7,32.4,5,39.7,16.6,40.5c11.7,0.9,32.1-9,24.2-46.4c-7.9-37.3,12.8-47.5,24.5-47.5
		c11.7,0,34.1,14.8,35,30.3s-9.8,34.9-9,58.3c0.8,23.3,4.3,40.4,25.1,42.4c20.8,2,24.6-23.1,18.8-47.7c-5.8-24.6-3.8-51.8,19.8-49.7
		c23.6,2,36.5,24.4,33.2,42.6c-3.3,18.3-17.8,65.2,10.2,69.3s41.4-31.2,33.5-57.6c-7.9-26.4-16.6-71.1,2.2-79.9
		c18.8-8.9,29,3,25.9,37.1c-3,34-0.3,41.4,9.6,42.4c9.9,1,17-6.6,17-18c0-11.4-3-68.5,17-68.5c20,0,25.4,23.5,24.6,43
		c-0.8,19.4,0,39.2,19.8,39c19.8-0.3,17.3-44.2,31.7-40.6s19.8,18,18.8,42.9s0.5,40.4,13.4,41.4c12.9,1,30.5-19.8,29.2-37.3
		c-1.3-17.5-5.1-33.5-2.5-37.8C2093.7-1237.5,2090.4-1249.3,2090.4-1249.3z"/>
	<path id="chocolat" class="st1" d="M2100.4-1251.5v-207.2h-1193h-7h-1193v222.2c0,0,25.4-8.1,39.1,15.3
		c13.7,23.4-8.9,97.7-8.9,114.6s7.3,64.6,46,62.2c38.7-2.4,31.5-47.6,28.3-58.1c-3.2-10.5-19.4-46-18.6-64.6
		c0.8-18.6,15.3-37.1,29.9-37.1c14.5,0,25.8,11.3,22.6,30.7s-7.3,54.1,14.5,58.1c21.8,4,25-22.6,24.2-32.3
		c-0.8-9.7-9.7-60.5-6.5-73.5c3.2-12.9,8.9-41.2,36.3-41.2c27.4,0,43.6,24.2,42.8,42.8c-0.8,18.6-10.5,71,8.9,74.3
		c19.4,3.2,26.6-25.8,26.6-39.6c0-13.7-15.3-71.8,34.7-70.2s42,54.9,37.1,68.6c-4.8,13.7-15.3,81.5,21,86.4
		c36.3,4.8,16.1-75.1,12.9-85.6c-3.2-10.5-15.3-47.7-4-65.8c11.3-18.1,25.8-31,42-27c16.1,4,22.6,36.3,18.6,52.5
		c-4,16.1-9.7,47.6,15.3,51.7c25,4,29.9-33.1,21.8-57.3c-8.1-24.2,7.3-51.7,29.1-50.9c21.8,0.8,36.3,16.1,36.3,46.8
		c0,30.7-9.7,67,8.9,71.8s25.9-32.5,22.6-58.1c-4.5-34.8,12.9-55.7,33.9-55.7c0,0,44.8-5.8,37.4,74.5c-7.4,80.3-7.4,96.5,30,95
		c34.3-1.4,21.8-98.8,18-123.3c-3.8-24.4,9-51.6,27.6-50.7s34.4,7.9,27.7,40.2c-6.7,32.4,5,39.7,16.6,40.5s32.1-9,24.2-46.4
		c-7.9-37.3,12.8-47.5,24.5-47.5c11.7,0,34.1,14.8,35,30.3s-9.8,34.9-9,58.3c0.8,23.3,4.3,40.4,25.1,42.4
		c20.8,2,24.6-23.1,18.8-47.7s-3.8-51.8,19.8-49.7c23.6,2,36.5,24.4,33.2,42.6c-3.3,18.3-17.8,65.2,10.2,69.3s41.4-31.2,33.5-57.6
		c-7.9-26.4-16.6-71.1,2.2-79.9c18.8-8.9,29,33,25.9,67.1s-0.3,41.4,9.6,42.4c9.9,1,17-6.6,17-18s-3-68.5,17-68.5s25.4,23.5,24.6,43
		c-0.8,19.4,0,39.2,19.8,39c19.8-0.3,17.3-44.2,31.7-40.6c14.5,3.6,19.8,18,18.8,42.9c-1,24.9,0.5,40.4,13.5,41.4
		c12.9,1,30.5-19.8,29.2-37.3c-0.5-6.8-1-14.7,0.1-20.4c3.8-19,22.4-34.5,34.5-20.2c17.6,20.7-8.7,93.3-8.7,110.2s7.3,64.6,46,62.2
		c38.7-2.4,31.5-47.6,28.3-58.1c-3.2-10.5-19.4-46-18.6-64.6c0.8-18.6,15.3-37.1,29.9-37.1c14.5,0,25.8,11.3,22.6,30.7
		s-7.3,54.1,14.5,58.1c21.8,4,25-22.6,24.2-32.3s-9.7-60.5-6.5-73.5c3.2-12.9,8.9-41.2,36.3-41.2s43.6,24.2,42.8,42.8
		c-0.8,18.6-10.5,71,8.9,74.3c19.4,3.2,26.6-25.8,26.6-39.6c0-13.7-15.3-71.8,34.7-70.2c50,1.6,42,54.9,37.1,68.6
		c-4.8,13.7-15.3,81.5,21,86.4c36.3,4.8,16.1-75.1,12.9-85.6c-3.2-10.5-15.3-47.7-4-65.8c11.3-18.1,25.8-31,42-27
		c16.1,4,22.6,36.3,18.6,52.5c-4,16.1-9.7,47.6,15.3,51.7c25,4,29.9-33.1,21.8-57.3c-8.1-24.2,7.3-51.7,29.1-50.9
		c21.8,0.8,36.3,16.1,36.3,46.8c0,30.7-9.7,67,8.9,71.8s25.9-32.5,22.6-58.1c-4.5-34.8,12.9-55.7,33.9-55.7c0,0,44.8-5.8,37.4,74.5
		c-7.4,80.3-7.4,96.5,30,95c34.3-1.4,21.8-98.8,18-123.3c-3.8-24.4,9-51.6,27.6-50.7s34.4,7.9,27.7,40.2c-6.7,32.4,5,39.7,16.6,40.5
		c11.7,0.9,32.1-9,24.2-46.4s12.8-47.5,24.5-47.5s34.1,14.8,35,30.3c0.9,15.5-9.8,34.9-9,58.3s4.3,40.4,25.1,42.4
		c20.8,2,24.6-23.1,18.8-47.7c-5.8-24.6-3.8-51.8,19.8-49.7c23.6,2,36.5,24.4,33.2,42.6c-3.3,18.3-17.8,65.2,10.2,69.3
		s41.4-31.2,33.5-57.6c-7.9-26.4-16.6-71.1,2.2-79.9c18.8-8.9,29,3,25.9,37.1c-3,34-0.3,41.4,9.6,42.4c9.9,1,17-6.6,17-18
		c0-11.4-3-68.5,17-68.5c20,0,25.4,23.5,24.6,43c-0.8,19.4,0,39.2,19.8,39c19.8-0.3,17.3-44.2,31.7-40.6c14.5,3.6,19.8,18,18.8,42.9
		s0.5,40.4,13.5,41.4c12.9,1,30.5-19.8,29.2-37.3c-1.3-17.5-5.1-33.5-2.5-37.8C2097.7-1248.3,2100.4-1251.5,2100.4-1251.5z"/>
	<g id="reflets">
		<path class="st2" d="M959.7-1060.8c0,0,12,12,28.3,1.7c16.2-10.4,9-22.1,9-22.1s1.6,10.7-11.6,19.4
			C973.1-1053.7,959.7-1060.8,959.7-1060.8z"/>
		<path class="st2" d="M977.6-1173.9c0,0,2.6-11.5,8.7-19.8c6.1-8.3,14.7-11.9,14.7-11.9s-11.3,0-18.2,10S977.6-1173.9,977.6-1173.9
			z"/>
		<path class="st2" d="M1051.1-1128.3c0,0,8.6,6.2,13.8-1.4s2.4-19,2.4-19s0.5,11.9-4.8,16.6S1051.1-1128.3,1051.1-1128.3z"/>
		<path class="st2" d="M1063-1240.8c0,0,8.3-15.5,20.3-21c14.3-6.5,31-4,31-4s-13.4-0.3-28.4,7.6
			C1072.1-1250.9,1063-1240.8,1063-1240.8z"/>
		<path class="st2" d="M1157.9-1158.1c0,0,3.2,9.8,11.7,3.4s6.5-15.5,6.5-15.5s-0.7,5.7-6.6,11.8
			C1163.4-1152.1,1157.9-1158.1,1157.9-1158.1z"/>
		<path class="st2" d="M1235.7-1259.7c0,0,7.7-1.8,15,4.2s8.1,14.3,8.1,14.3s-6-7.5-10.8-11
			C1243.1-1255.7,1235.7-1259.7,1235.7-1259.7z"/>
		<path class="st2" d="M1266.2-1116.5c0,0,5.3,5.4,10.8,3.9c9.3-2.6,13.1-8.2,13.1-8.2s1,7.9-8.6,12.5
			C1271.9-1103.8,1266.2-1116.5,1266.2-1116.5z"/>
		<path class="st2" d="M1355.1-1191.6c0,0,2.9,8.7,12.5,8.6c9.6-0.2,12.7-10.5,12.7-10.5s-4.7,6.2-12.6,6.4
			C1359.8-1186.9,1355.1-1191.6,1355.1-1191.6z"/>
		<path class="st2" d="M1394.5-1286.6c0,0,17.7-7.4,33.3-2.2s24.8,20.5,24.8,20.5s-10.1-11.7-26.5-16.4S1394.5-1286.6,1394.5-1286.6
			z"/>
		<path class="st2" d="M1465-1174.3c0,0,7.7,1.2,10.9-7.3c3.2-8.5-1-14.2-1-14.2s1.9,4.6-1.9,13.5
			C1469.3-1173.8,1465-1174.3,1465-1174.3z"/>
		<path class="st2" d="M1528.3-1281.8c0,0,11.4-1.4,21.4,9.8c10,11.3,9.5,22,9.5,22s-5.4-11.8-12.8-18.7
			S1528.3-1281.8,1528.3-1281.8z"/>
		<path class="st2" d="M1572.3-1115.5c0,0,11.2,1,18-10.4c6.8-11.4,4-20.6,4-20.6s8.4,12.2-0.4,23.2
			C1585-1112.3,1572.3-1115.5,1572.3-1115.5z"/>
		<path class="st2" d="M1633.1-1289.1c0,0,9.5-4.5,19.3,2.3c9.8,6.9,12.5,17.4,12.5,17.4s-6.9-9.2-13.9-13.2
			S1633.1-1289.1,1633.1-1289.1z"/>
		<path class="st2" d="M1668-1212.4c0,0,7.3,6.9,15,2.3c7.7-4.6,5.6-14.5,5.6-14.5s-0.5,6.2-6.9,10.5
			C1675.8-1210,1668-1212.4,1668-1212.4z"/>
		<path class="st2" d="M1765.4-1173.1c0,0,11.3,1,16.2-4.2s5.5-17.3,5.5-17.3s6,13.8-3.3,20.1
			C1774.5-1168.1,1765.4-1173.1,1765.4-1173.1z"/>
		<path class="st2" d="M1794.3-1265.2c0,0,10.1-6.1,20-5.8c9.9,0.4,23,11.3,23,11.3s-11.9-6.5-22.8-6.9
			C1803.6-1267,1794.3-1265.2,1794.3-1265.2z"/>
		<path class="st2" d="M1845.9-1169.9c0,0,4.5,7.7,13.8,7.3c9.3-0.3,15.5-6.3,15.5-6.3s-3,10.5-15.5,10.3
			C1847.3-1158.8,1845.9-1169.9,1845.9-1169.9z"/>
		<path class="st2" d="M1901.8-1299.4c0,0,6.5-0.5,11.9,5.5c5.4,6,4.3,11,4.3,11s-3.7-5.8-8-9.9
			C1905.5-1296.9,1901.8-1299.4,1901.8-1299.4z"/>
		<path class="st2" d="M1924.4-1223.3c0,0,0.3,3.7,6.8,3.3c6.5-0.4,7.1-5.6,7.1-5.6s1.5,9.3-6.4,9.2
			C1924-1216.6,1924.4-1223.3,1924.4-1223.3z"/>
		<path class="st2" d="M1966.7-1297.5c0,0,7.7-1.9,16.2,5.1c8.5,7,7,13.5,7,13.5s-6.2-7.2-10.9-10.5
			C1974.4-1292.6,1966.7-1297.5,1966.7-1297.5z"/>
		<path class="st2" d="M1994-1233.1c0,0,0,3.8,7.1,3.3c7.1-0.5,8.8-8.4,8.8-8.4s3.7,11.9-6.2,12.5
			C1993.8-1225.2,1994-1233.1,1994-1233.1z"/>
		<path class="st2" d="M2027.9-1264.5c0,0,9.8-3.3,18.6,2.7s11,17.7,11,17.7s-6.2-8.6-13.4-14.1
			C2036.9-1263.7,2027.9-1264.5,2027.9-1264.5z"/>
		<path class="st2" d="M2063-1185c0,0,9.2-3.7,13.6-9.4c4.4-5.7,7.5-15.6,7.5-15.6s1.7,12.1-4.4,18.2
			C2073.6-1185.7,2063-1185,2063-1185z"/>
		<path class="st2" d="M-233.3-1060.8c0,0,12,12,28.3,1.7c16.2-10.4,9-22.1,9-22.1s1.6,10.7-11.6,19.4
			C-219.9-1053.7-233.3-1060.8-233.3-1060.8z"/>
		<path class="st2" d="M-215.3-1173.9c0,0,2.6-11.5,8.7-19.8c6.1-8.3,14.7-11.9,14.7-11.9s-11.3,0-18.2,10
			S-215.3-1173.9-215.3-1173.9z"/>
		<path class="st2" d="M-141.8-1128.3c0,0,8.6,6.2,13.8-1.4c5.2-7.6,2.4-19,2.4-19s0.5,11.9-4.8,16.6
			C-135.8-1127.5-141.8-1128.3-141.8-1128.3z"/>
		<path class="st2" d="M-129.9-1240.8c0,0,8.3-15.5,20.3-21c14.3-6.5,31-4,31-4s-13.4-0.3-28.4,7.6
			C-120.8-1250.9-129.9-1240.8-129.9-1240.8z"/>
		<path class="st2" d="M-35.1-1158.1c0,0,3.2,9.8,11.7,3.4s6.5-15.5,6.5-15.5s-0.7,5.7-6.6,11.8
			C-29.6-1152.1-35.1-1158.1-35.1-1158.1z"/>
		<path class="st2" d="M42.7-1259.7c0,0,7.7-1.8,15,4.2s8.1,14.3,8.1,14.3s-6-7.5-10.8-11C50.1-1255.7,42.7-1259.7,42.7-1259.7z"/>
		<path class="st2" d="M73.2-1116.5c0,0,5.3,5.4,10.8,3.9c9.3-2.6,13.1-8.2,13.1-8.2s1,7.9-8.6,12.5
			C78.9-1103.8,73.2-1116.5,73.2-1116.5z"/>
		<path class="st2" d="M162.1-1191.6c0,0,2.9,8.7,12.5,8.6c9.6-0.2,12.7-10.5,12.7-10.5s-4.7,6.2-12.6,6.4
			C166.8-1186.9,162.1-1191.6,162.1-1191.6z"/>
		<path class="st2" d="M201.5-1286.6c0,0,17.7-7.4,33.3-2.2s24.8,20.5,24.8,20.5s-10.1-11.7-26.5-16.4S201.5-1286.6,201.5-1286.6z"
			/>
		<path class="st2" d="M272-1174.3c0,0,7.7,1.2,10.9-7.3c3.2-8.5-1-14.2-1-14.2s1.9,4.6-1.9,13.5
			C276.3-1173.8,272-1174.3,272-1174.3z"/>
		<path class="st2" d="M335.3-1281.8c0,0,11.4-1.4,21.4,9.8s9.5,22,9.5,22s-5.4-11.8-12.8-18.7S335.3-1281.8,335.3-1281.8z"/>
		<path class="st2" d="M379.3-1115.5c0,0,11.2,1,18-10.4c6.8-11.4,4-20.6,4-20.6s8.4,12.2-0.4,23.2S379.3-1115.5,379.3-1115.5z"/>
		<path class="st2" d="M440.1-1289.1c0,0,9.5-4.5,19.3,2.3s12.5,17.4,12.5,17.4s-6.9-9.2-13.9-13.2
			C451-1286.6,440.1-1289.1,440.1-1289.1z"/>
		<path class="st2" d="M475-1212.4c0,0,7.3,6.9,15,2.3c7.7-4.6,5.6-14.5,5.6-14.5s-0.5,6.2-6.9,10.5
			C482.9-1210,475-1212.4,475-1212.4z"/>
		<path class="st2" d="M572.4-1173.1c0,0,11.3,1,16.2-4.2s5.5-17.3,5.5-17.3s6,13.8-3.3,20.1
			C581.5-1168.1,572.4-1173.1,572.4-1173.1z"/>
		<path class="st2" d="M601.3-1265.2c0,0,10.1-6.1,20-5.8s23,11.3,23,11.3s-11.9-6.5-22.8-6.9C610.6-1267,601.3-1265.2,601.3-1265.2
			z"/>
		<path class="st2" d="M652.9-1169.9c0,0,4.5,7.7,13.8,7.3s15.5-6.3,15.5-6.3s-3,10.5-15.5,10.3S652.9-1169.9,652.9-1169.9z"/>
		<path class="st2" d="M703.9-1294.1c0,0,6.5-0.5,11.9,5.5c5.4,6,4.3,11,4.3,11s-3.7-5.8-8-9.9
			C707.7-1291.6,703.9-1294.1,703.9-1294.1z"/>
		<path class="st2" d="M731.4-1193.3c0,0,0.3,3.7,6.8,3.3c6.5-0.4,7.1-5.6,7.1-5.6s1.5,9.3-6.4,9.2
			C731-1186.6,731.4-1193.3,731.4-1193.3z"/>
		<path class="st2" d="M773.7-1267.5c0,0,7.7-1.9,16.2,5.1c8.5,7,7,13.5,7,13.5s-6.2-7.2-10.9-10.5
			C781.4-1262.6,773.7-1267.5,773.7-1267.5z"/>
		<path class="st2" d="M801-1203.1c0,0,0,3.8,7.1,3.3s8.8-8.4,8.8-8.4s3.7,11.9-6.2,12.5C800.8-1195.2,801-1203.1,801-1203.1z"/>
		<path class="st2" d="M834.9-1234.5c0,0,9.8-3.3,18.6,2.7c8.9,6,11,17.7,11,17.7s-6.2-8.6-13.4-14.1S834.9-1234.5,834.9-1234.5z"/>
		<path class="st2" d="M870-1155c0,0,9.2-3.7,13.6-9.4c4.4-5.7,7.5-15.6,7.5-15.6s1.7,12.1-4.4,18.2C880.7-1155.7,870-1155,870-1155
			z"/>
	</g>
</g>
<g id="REMASTER">
	<path id="chocolat_1_" class="st0" d="M1779.3,5H1192h-7L614.5,0c0,0-2.4,32.3,38.7,102.2c29.6,50.3-1.6,102.2-3.7,135.4
		c-1,15.3-24.8,77.3,26.3,78.7c34.3,1,20.8-30.1,17-57.4c-3.8-27.3,9-57.7,27.6-56.7c18.7,1,34.4,8.8,27.7,45s5,44.3,16.6,45.3
		s32.1-10.1,24.2-51.8c-7.9-41.7,12.8-52.7,24.5-53c28.8-0.9,34.1,16.6,35,33.9c0.9,17.3-5,48.5,15.8,50.7s15.2-49.4,38.8-47.2
		c23.6,2.3,20.3,36.8,17,57.2c-3.3,20.4-13.5,58.2,14.4,62.7c27.9,4.5,19.5-19.7,19.9-39.7c0.5-21.7-15.4-50.6,22.3-44.5
		c21,3.4,11.9,35.4,9.7,73.4c-2.1,36-15.5,80.8,24.6,79.4c38.7-1.4,21.2-60.7,18.2-73.1c-7.7-31.6-2.9-54.1,17.1-54.1
		c10,0,21.8,15.7,26.7,38.7s-9.3,51.9,17.7,52.9c29.6,1,5.8-112.7,37.3-109.7c14.9,1.4,19.8,20.1,18.8,47.9
		c-1,27.8-4.1,82.4,16.4,78.6c28.7-5.3,29.1-46.2,26.2-74.1c-0.8-7.6-1-16.4,0.1-22.8c3.8-21.3,22.4-38.6,34.5-22.6
		c17.6,23.1-8.7,104.2-8.7,123.2c0,18.9,7.3,72.2,46,69.5c38.7-2.7,31.5-53.2,28.3-65c-3.2-11.7-19.4-51.4-18.6-72.2
		c0.8-20.7,15.3-41.5,29.9-41.5s25.8,12.6,22.6,34.3c-3.2,21.7-7.3,60.4,14.5,65c21.8,4.5,24.8-25.2,24.2-36.1
		c-0.9-17.7-8.4-29.4-5.4-53.8c3-24.8,17.1-49.8,35.1-54.1c22.9-5.5,43.8,6.8,43,27.6c-0.8,20.7-10.5,79.4,8.9,83
		c19.4,3.6,26.6-28.9,26.6-44.2c0-15.3-15.3-80.3,34.7-78.5c50,1.8,42,61.3,37.1,76.7c-4.8,15.3-15.3,91.1,21,96.5
		c36.3,5.4,16.1-83.9,12.9-95.6c-3.2-11.7-15.3-53.3-4-73.6c11.3-20.2,25.8-34.7,42-30.2c16.1,4.5,22.6,40.6,18.6,58.6
		c-4,18-9.7,53.2,15.3,57.7c25,4.5,29.9-37,21.8-64c-8.1-27.1,7.3-57.7,29.1-56.8c21.8,0.9,36.3,18,36.3,52.3s-9.7,74.9,8.9,80.3
		s25.9-36.4,22.6-65c-4.5-38.8-14.4-113.6,2.4-160.6C1799.5,23.5,1779.3,5,1779.3,5z"/>
	<path id="chocolat_2_" class="st1" d="M1787.3,0H1200h-7H614.5c0,0-16.7,29.7,24.5,99.6c29.6,50.3,16.2,98,14.3,153.8
		c-1,28.8-6.8,59.6,30.5,57.9c34.3-1.6,20.8-30.1,17-57.4c-3.8-27.3,9-57.7,27.6-56.7c18.7,1,34.4,8.8,27.7,45s5,44.3,16.6,45.3
		c11.7,1,32.1-10.1,24.2-51.8c-7.9-41.7,12.8-52.7,24.5-53c28.8-0.9,34.1,16.6,35,33.9c0.9,17.3-5,48.5,15.8,50.7
		c20.8,2.3,15.2-49.4,38.8-47.2c23.6,2.3,20.3,36.8,17,57.2c-3.3,20.4-13.5,58.2,14.4,62.7c27.9,4.5,19.5-19.7,19.9-39.7
		c0.5-21.7-15.4-50.6,22.3-44.5c21,3.4,11.9,35.4,9.7,73.4c-2.1,36-15.5,80.8,24.6,79.4c38.7-1.4,21.2-60.7,18.2-73.1
		c-7.7-31.6-2.9-54.1,17.1-54.1c10,0,21.8,15.7,26.7,38.7s-9.3,51.9,17.7,52.9c29.6,1,5.8-112.7,37.3-109.7
		c14.9,1.4,19.8,20.1,18.8,47.9c-1,27.8-4.1,82.4,16.4,78.6c28.7-5.3,29.1-46.2,26.2-74.1c-0.8-7.6-1-16.4,0.1-22.8
		c3.8-21.3,22.4-38.6,34.5-22.6c17.6,23.1-8.7,104.2-8.7,123.2c0,18.9,7.3,72.2,46,69.5c38.7-2.7,31.5-53.2,28.3-65
		c-3.2-11.7-19.4-51.4-18.6-72.2c0.8-20.7,15.3-41.5,29.9-41.5c14.5,0,25.8,12.6,22.6,34.3c-3.2,21.7-7.3,60.4,14.5,65
		c21.8,4.5,24.8-25.2,24.2-36.1c-0.9-17.7-8.4-29.4-5.4-53.8c3-24.8,17.1-49.8,35.1-54.1c22.9-5.5,43.8,6.8,43,27.6
		c-0.8,20.7-10.5,79.4,8.9,83c19.4,3.6,26.6-28.9,26.6-44.2s-15.3-80.3,34.7-78.5c50,1.8,42,61.3,37.1,76.7s-15.3,91.1,21,96.5
		c36.3,5.4,16.1-83.9,12.9-95.6c-3.2-11.7-15.3-53.3-4-73.6c11.3-20.2,25.8-34.7,42-30.2c16.1,4.5,22.6,40.6,18.6,58.6
		c-4,18-9.7,53.2,15.3,57.7c25,4.5,29.9-37,21.8-64c-8.1-27.1,7.3-57.7,29.1-56.8c21.8,0.9,36.3,18,36.3,52.3s-9.7,74.9,8.9,80.3
		c18.6,5.4,25.9-36.4,22.6-65c-4.5-38.8-14.4-113.6,2.4-160.6C1807.6,18.5,1787.3,0,1787.3,0z"/>
	<g id="reflets_1_">
		<path class="st2" d="M1252.2,444.6c0,0,12,13.4,28.3,1.8c16.2-11.6,9-24.7,9-24.7s1.6,11.9-11.6,21.7
			C1265.6,452.5,1252.2,444.6,1252.2,444.6z"/>
		<path class="st2" d="M1270.2,318.2c0,0,2.6-12.8,8.7-22.1c6.1-9.3,14.7-13.2,14.7-13.2s-11.3,0-18.2,11.2
			S1270.2,318.2,1270.2,318.2z"/>
		<path class="st2" d="M1343.7,369.2c0,0,8.6,7,13.8-1.5c5.2-8.5,2.4-21.3,2.4-21.3s0.5,13.3-4.8,18.6
			C1349.8,370.1,1343.7,369.2,1343.7,369.2z"/>
		<path class="st2" d="M1365.8,250.9c0,0,8.3-17.4,20.3-23.5c14.3-7.3,31-4.4,31-4.4s-13.4-0.3-28.4,8.5
			C1374.9,239.6,1365.8,250.9,1365.8,250.9z"/>
		<path class="st2" d="M1450.4,335.9c0,0,3.2,11,11.7,3.8s6.5-17.3,6.5-17.3s-0.7,6.4-6.6,13.2
			C1455.9,342.6,1450.4,335.9,1450.4,335.9z"/>
		<path class="st2" d="M1528.2,222.4c0,0,7.7-2,15,4.7c7.3,6.7,8.1,15.9,8.1,15.9s-6-8.4-10.8-12.3
			C1535.7,226.9,1528.2,222.4,1528.2,222.4z"/>
		<path class="st2" d="M1558.8,382.4c0,0,5.3,6.1,10.8,4.3c9.3-2.9,13.1-9.2,13.1-9.2s1,8.9-8.6,14
			C1564.5,396.5,1558.8,382.4,1558.8,382.4z"/>
		<path class="st2" d="M1647.6,298.5c0,0,2.9,9.7,12.5,9.6s12.7-11.7,12.7-11.7s-4.7,7-12.6,7.1S1647.6,298.5,1647.6,298.5z"/>
		<path class="st2" d="M1687.1,192.3c0,0,17.7-8.3,33.3-2.5c15.6,5.8,24.8,22.9,24.8,22.9s-10.1-13-26.5-18.3
			C1702.2,189.1,1687.1,192.3,1687.1,192.3z"/>
		<path class="st2" d="M1757.5,317.8c0,0,7.7,1.3,10.9-8.2s-1-15.8-1-15.8s1.9,5.1-1.9,15.1C1761.8,318.3,1757.5,317.8,1757.5,317.8
			z"/>
		<path class="st2" d="M913.3,215.5c0,0,7.7-2,15,4.7c7.3,6.7,8.1,15.9,8.1,15.9s-6-8.4-10.8-12.3S913.3,215.5,913.3,215.5z"/>
		<path class="st2" d="M675,301.7c0,0,11.2,1.1,18-11.6c6.8-12.7,4-23,4-23s8.4,13.6-0.4,25.9C687.8,305.3,675,301.7,675,301.7z"/>
		<path class="st2" d="M732.6,189.4c0,0,9.5-5,19.3,2.6c9.8,7.7,12.5,19.5,12.5,19.5s-6.9-10.3-13.9-14.8
			C743.5,192.2,732.6,189.4,732.6,189.4z"/>
		<path class="st2" d="M767.6,275.2c0,0,7.3,7.8,15,2.6c7.7-5.2,5.6-16.2,5.6-16.2s-0.5,6.9-6.9,11.7
			C775.4,277.9,767.6,275.2,767.6,275.2z"/>
		<path class="st2" d="M863.7,257.1c0,0,10.7,0,15.6-5.9s8.7-18.2,8.7-18.2s0.1,12.4-7.6,20.4C874,260.2,862,256.2,863.7,257.1z"/>
		<path class="st2" d="M808.3,175.5c0,0,10.1-6.9,20-6.4c9.9,0.4,23,12.6,23,12.6s-11.9-7.3-22.8-7.8S808.3,175.5,808.3,175.5z"/>
		<path class="st2" d="M930.9,322.7c0,0,4.5,8.6,13.8,8.2c9.3-0.4,15.5-7.1,15.5-7.1s-3,11.7-15.5,11.5
			C932.2,335.1,930.9,322.7,930.9,322.7z"/>
		<path class="st2" d="M988.4,249.5c0,0,6.5-0.6,11.9,6.2s4.3,12.3,4.3,12.3s-3.7-6.4-8-11C992.1,252.3,988.4,249.5,988.4,249.5z"/>
		<path class="st2" d="M1018.4,392.2c0,0,0.3,4.1,6.8,3.6c6.5-0.4,7.1-6.3,7.1-6.3s1.5,10.4-6.4,10.3
			C1018.1,399.8,1018.4,392.2,1018.4,392.2z"/>
		<path class="st2" d="M1052.1,269.6c0,0,7.7-2.2,16.2,5.7c8.5,7.9,7,15.1,7,15.1s-6.2-8-10.9-11.7S1052.1,269.6,1052.1,269.6z"/>
		<path class="st2" d="M1091.2,358.5c0,0,0,4.3,7.1,3.7c7.1-0.6,8.8-9.4,8.8-9.4s3.7,13.3-6.2,13.9
			C1091,367.4,1091.2,358.5,1091.2,358.5z"/>
		<path class="st2" d="M1127.4,250.5c0,0,9.8-3.7,18.6,3c8.9,6.7,11,19.8,11,19.8s-6.2-9.6-13.4-15.8
			C1136.5,251.4,1127.4,250.5,1127.4,250.5z"/>
		<path class="st2" d="M1171.1,376.7c0,0,9.2-4.1,13.6-10.5c4.4-6.3,7.5-17.5,7.5-17.5s1.7,13.5-4.4,20.3
			C1181.8,375.9,1171.1,376.7,1171.1,376.7z"/>
	</g>
	
		<image style="display:none;overflow:visible;" width="4000" height="2262" id="LOGO" xlink:href="../img/logo-white.png"  transform="matrix(9.242046e-02 0 0 9.242046e-02 1015.2565 34.4292)">
	</image>
</g>
</svg>
