<?xml version="1.0" encoding="UTF-8" standalone="no"?>
<svg
   xmlns:dc="http://purl.org/dc/elements/1.1/"
   xmlns:cc="http://creativecommons.org/ns#"
   xmlns:rdf="http://www.w3.org/1999/02/22-rdf-syntax-ns#"
   xmlns:svg="http://www.w3.org/2000/svg"
   xmlns="http://www.w3.org/2000/svg"
   xmlns:sodipodi="http://sodipodi.sourceforge.net/DTD/sodipodi-0.dtd"
   xmlns:inkscape="http://www.inkscape.org/namespaces/inkscape"
   viewBox="0 0 100 42.000001"
   height="42"
   width="100"
   xml:space="preserve"
   id="svg2"
   version="1.1"
   sodipodi:docname="mm.svg"
   inkscape:version="0.92.4 (5da689c313, 2019-01-14)"><title
     id="title902">M&amp;M's logo</title><sodipodi:namedview
     pagecolor="#ffffff"
     bordercolor="#666666"
     borderopacity="1"
     objecttolerance="10"
     gridtolerance="10"
     guidetolerance="10"
     inkscape:pageopacity="0"
     inkscape:pageshadow="2"
     inkscape:window-width="1366"
     inkscape:window-height="705"
     id="namedview95"
     showgrid="false"
     inkscape:showpageshadow="false"
     inkscape:zoom="1"
     inkscape:cx="92.811495"
     inkscape:cy="19.525577"
     inkscape:window-x="-8"
     inkscape:window-y="-8"
     inkscape:window-maximized="1"
     inkscape:current-layer="svg2" /><metadata
     id="metadata8"><rdf:RDF><cc:Work
         rdf:about=""><dc:format>image/svg+xml</dc:format><dc:type
           rdf:resource="http://purl.org/dc/dcmitype/StillImage" /><dc:title>M&amp;M's logo</dc:title><cc:license
           rdf:resource="http://scripts.sil.org/OFL" /><dc:date>18 jul 2019</dc:date></cc:Work><cc:License
         rdf:about="http://scripts.sil.org/OFL"><cc:permits
           rdf:resource="http://scripts.sil.org/pub/OFL/Reproduction" /><cc:permits
           rdf:resource="http://scripts.sil.org/pub/OFL/Distribution" /><cc:permits
           rdf:resource="http://scripts.sil.org/pub/OFL/Embedding" /><cc:permits
           rdf:resource="http://scripts.sil.org/pub/OFL/DerivativeWorks" /><cc:requires
           rdf:resource="http://scripts.sil.org/pub/OFL/Notice" /><cc:requires
           rdf:resource="http://scripts.sil.org/pub/OFL/Attribution" /><cc:requires
           rdf:resource="http://scripts.sil.org/pub/OFL/ShareAlike" /><cc:requires
           rdf:resource="http://scripts.sil.org/pub/OFL/DerivativeRenaming" /><cc:requires
           rdf:resource="http://scripts.sil.org/pub/OFL/BundlingWhenSelling" /></cc:License></rdf:RDF></metadata><defs
     id="defs6"><clipPath
       id="clipPath28"
       clipPathUnits="userSpaceOnUse"><path
         id="path26"
         d="m 2117.99,462.766 c -12.03,7.742 -19.79,19.168 -21.37,31.211 l -44.74,328.367 c -7.25,49.082 -36.86,83.867 -85.69,100.754 -38.08,13.261 -86.87,14.882 -137.48,4.804 -40.76,-8.156 -104.76,-27.668 -155.88,-56.113 -16.44,9.891 -35.78,16.356 -57.54,18.992 -22.59,2.805 -47.2,1.836 -73.28,-3.133 -42.38,-7.968 -85.76,-25.839 -119.08,-49.093 l -28.4,-19.793 -5.25,38.718 -212.91,-29.023 15.39,-113.152 c 27.07,-0.801 52.81,-18.262 56.01,-39.856 l 39.75,-291.777 c 1.68,-11.973 -2.75,-24.961 -12.23,-35.692 -6.09,-7.101 -13.9,-12.519 -22.67,-16.144 l 13.42,-98.691 262.65,35.773 -13.46,98.711 c -9.45,1.082 -18.35,4.277 -26.19,9.461 -11.99,7.773 -19.76,19.133 -21.33,31.191 l -39.92,292.844 c -1.31,9.219 0.65,17.91 6.8,26.777 9.92,15.399 30.02,28.153 58.42,31.973 39.41,5.301 65.58,-16.574 68.38,-35.664 l 60.31,-442.598 221.46,30.145 -13.41,98.711 c -9.5,1.105 -18.48,4.297 -26.27,9.472 -11.98,7.766 -19.65,19.141 -21.35,31.153 l -39.75,292.109 c -1.34,9.102 0.65,17.844 6.76,26.68 9.92,15.41 30,28.254 58.44,32.082 39.39,5.234 65.58,-16.621 68.42,-35.703 l 60.17,-441.778 221.39,30.106 -13.42,98.73 c -9.43,1.125 -18.38,4.258 -26.15,9.446 z"
         inkscape:connector-curvature="0" /></clipPath><linearGradient
       id="linearGradient38"
       spreadMethod="pad"
       gradientTransform="matrix(-82.7707,607.493,607.493,82.7707,1707.71,292.422)"
       gradientUnits="userSpaceOnUse"
       y2="0"
       x2="1"
       y1="0"
       x1="0"><stop
         id="stop30"
         offset="0"
         style="stop-opacity:1;stop-color:#412013" /><stop
         id="stop32"
         offset="0.005464"
         style="stop-opacity:1;stop-color:#412013" /><stop
         id="stop34"
         offset="0.80018524"
         style="stop-opacity:1;stop-color:#412013" /><stop
         id="stop36"
         offset="1"
         style="stop-opacity:1;stop-color:#825845" /></linearGradient><clipPath
       id="clipPath50"
       clipPathUnits="userSpaceOnUse"><path
         id="path48"
         d="m 1320.61,429.395 -40.55,-5.547 -15.55,12.207 c 6.54,9.922 12.09,20.48 16.74,31.593 1.45,3.594 2.87,7.149 4.16,10.879 l 27.93,3.778 -6.46,47.785 -73.36,-10 c -4.24,-14.942 -10.98,-30.207 -19.54,-44.719 l -53.63,41.992 c 29.61,22.668 55.16,49.211 50.2,84.172 -5.47,39.395 -48.71,67.371 -106.26,59.832 -41.17,-5.457 -68.16,-27.461 -78.44,-53.027 -4.12,-10.203 -5.52,-21.16 -4.08,-31.68 3.65,-26.074 16.7,-40.125 39.38,-58.398 -32.68,-23.184 -60.55,-50.645 -56.27,-91.336 5.6,-53.008 61.62,-83.77 128.25,-74.934 33.53,4.297 64.55,18.262 90.33,38.867 l 24.76,-19.48 78.79,10.742 z m -193.2,-24.149 c -26.71,-3.555 -50.04,6.18 -53.35,29.727 -1.96,14.109 12.97,28.953 35,45.691 l 66.31,-52.039 c -14.93,-12.57 -31.28,-21.25 -47.96,-23.379 z m -15.43,214.09 c 19.24,2.648 35.41,-6.629 37.56,-22.598 2.34,-16.582 -14.28,-30.234 -35.17,-43.789 -11.94,8.938 -30.86,22.473 -32.33,33.555 -2.25,15.969 10.72,30.226 29.94,32.832 z"
         inkscape:connector-curvature="0" /></clipPath><linearGradient
       id="linearGradient60"
       spreadMethod="pad"
       gradientTransform="matrix(2.87265,312.215,312.215,-2.87265,1165.19,349.532)"
       gradientUnits="userSpaceOnUse"
       y2="0"
       x2="1"
       y1="0"
       x1="0"><stop
         id="stop52"
         offset="0"
         style="stop-opacity:1;stop-color:#412013" /><stop
         id="stop54"
         offset="0.005464"
         style="stop-opacity:1;stop-color:#412013" /><stop
         id="stop56"
         offset="0.80018524"
         style="stop-opacity:1;stop-color:#412013" /><stop
         id="stop58"
         offset="1"
         style="stop-opacity:1;stop-color:#825845" /></linearGradient><clipPath
       id="clipPath70"
       clipPathUnits="userSpaceOnUse"><path
         id="path68"
         d="m 1016.95,312.734 c -12.01,7.696 -19.747,19.161 -21.348,31.192 l -44.766,328.359 c -7.188,49.043 -36.797,83.887 -85.645,100.813 -38.086,13.164 -86.875,14.812 -137.461,4.754 -40.839,-8.086 -104.765,-27.657 -155.878,-56.122 -16.465,9.922 -35.782,16.348 -57.598,19.043 -22.559,2.793 -47.207,1.778 -73.203,-3.203 -42.442,-7.941 -85.781,-25.793 -119.082,-49.062 L 293.531,668.742 288.297,707.441 75.3711,678.418 90.8008,565.324 c 27.0702,-0.801 52.7732,-18.351 56.0152,-39.933 l 39.688,-291.7 c 1.68,-12.05 -2.695,-25.086 -12.188,-35.75 -6.152,-7.14 -13.906,-12.531 -22.675,-16.152 l 13.418,-98.7109 262.613,35.7809 -13.438,98.711 c -9.453,1.141 -18.379,4.297 -26.191,9.473 -12.031,7.715 -19.766,19.16 -21.387,31.191 l -39.883,292.86 c -1.328,9.133 0.645,17.89 6.778,26.797 9.98,15.39 30.019,28.117 58.437,31.945 39.414,5.273 65.606,-16.602 68.438,-35.656 l 60.293,-442.637 221.445,30.129 -13.437,98.75 c -9.512,1.152 -18.438,4.238 -26.25,9.461 -11.973,7.734 -19.727,19.133 -21.289,31.172 l -39.786,292.101 c -1.425,9.149 0.586,17.852 6.7,26.746 10,15.332 30.039,28.184 58.476,32.024 39.375,5.273 65.527,-16.653 68.418,-35.645 l 60.195,-441.914 221.429,30.184 -13.5,98.691 c -9.43,1.164 -18.38,4.317 -26.17,9.492 z"
         inkscape:connector-curvature="0" /></clipPath><linearGradient
       id="linearGradient80"
       spreadMethod="pad"
       gradientTransform="matrix(-82.7755,607.529,607.529,82.7755,606.748,142.344)"
       gradientUnits="userSpaceOnUse"
       y2="0"
       x2="1"
       y1="0"
       x1="0"><stop
         id="stop72"
         offset="0"
         style="stop-opacity:1;stop-color:#412013" /><stop
         id="stop74"
         offset="0.005464"
         style="stop-opacity:1;stop-color:#412013" /><stop
         id="stop76"
         offset="0.80018524"
         style="stop-opacity:1;stop-color:#412013" /><stop
         id="stop78"
         offset="1"
         style="stop-opacity:1;stop-color:#825845" /></linearGradient><clipPath
       id="clipPath102"
       clipPathUnits="userSpaceOnUse"><path
         id="path100"
         d="m 2352.62,680.305 c -4.63,34.011 -35.96,51.797 -74.3,58.699 -16.74,2.941 -33.48,4.543 -48.22,7.598 -10.45,2.472 -23.28,5.441 -25.59,18.105 -2.19,12.18 8.3,25.891 32.27,28.313 29.94,2.957 49.29,-16.809 59.67,-33.059 l 31.46,4.309 -10.1,74.316 -41.29,-5.234 -3.49,-5.899 c -9.69,2.402 -28.17,4.453 -52.76,1.367 -46.73,-6.047 -82.59,-38.496 -77.26,-79.199 4.49,-32.785 32.63,-49.797 68.36,-56.562 17.17,-3.301 37.95,-5.547 53.06,-8.848 10.61,-2.578 23.83,-5.949 26.29,-19.356 2.27,-12.98 -8.45,-26.796 -32.91,-29.992 -30.35,-3.886 -50.13,18.157 -63.02,35.84 l -33.15,-4.238 10.49,-76.875 45.82,6.191 3.59,6.789 c 12.7,-3.605 45.53,-8.164 74.4,1.903 36.21,12.629 61.31,41.875 56.68,75.832 z"
         inkscape:connector-curvature="0" /></clipPath><linearGradient
       id="linearGradient112"
       spreadMethod="pad"
       gradientTransform="matrix(-31.6653,232.407,232.407,31.6653,2263.79,597.696)"
       gradientUnits="userSpaceOnUse"
       y2="0"
       x2="1"
       y1="0"
       x1="0"><stop
         id="stop104"
         offset="0"
         style="stop-opacity:1;stop-color:#412013" /><stop
         id="stop106"
         offset="0.005464"
         style="stop-opacity:1;stop-color:#412013" /><stop
         id="stop108"
         offset="0.80018524"
         style="stop-opacity:1;stop-color:#412013" /><stop
         id="stop110"
         offset="1"
         style="stop-opacity:1;stop-color:#825845" /></linearGradient><clipPath
       id="clipPath122"
       clipPathUnits="userSpaceOnUse"><path
         id="path120"
         d="m 2102.03,894.328 51.49,6.863 -18.83,-69.375 -51.62,-6.961 z"
         inkscape:connector-curvature="0" /></clipPath><linearGradient
       id="linearGradient132"
       spreadMethod="pad"
       gradientTransform="matrix(0.708235,76.9747,76.9747,-0.708235,2117.92,824.424)"
       gradientUnits="userSpaceOnUse"
       y2="0"
       x2="1"
       y1="0"
       x1="0"><stop
         id="stop124"
         offset="0"
         style="stop-opacity:1;stop-color:#412013" /><stop
         id="stop126"
         offset="0.005464"
         style="stop-opacity:1;stop-color:#412013" /><stop
         id="stop128"
         offset="0.80018524"
         style="stop-opacity:1;stop-color:#412013" /><stop
         id="stop130"
         offset="1"
         style="stop-opacity:1;stop-color:#825845" /></linearGradient></defs><g
     transform="matrix(0.41104676,0,0,-0.41104676,1.0420292,41.373513)"
     id="g10"><g
       transform="scale(0.1)"
       id="g12"><path
         id="path14"
         style="fill:#231f20;fill-opacity:1;fill-rule:nonzero;stroke:none"
         d="m 1816.78,981.25 v 0 c -45.12,-9.004 -98.77,-26.973 -143.4,-48.074 0,0 -1.56,-0.723 -2.54,-1.172 -1.05,0.398 -2.66,0.976 -2.66,0.976 -16.15,5.997 -31.62,9.833 -47.26,11.747 -28.44,3.566 -58.83,2.324 -90.29,-3.653 -26.49,-4.988 -54.36,-14.246 -85.3,-28.289 0,0 -4.94,-2.199 -8.28,-3.762 -0.39,3.145 -1.27,9.825 -1.27,9.825 l -7.13,-0.957 -315.89,-43.047 c 0,0 20.6,-151.114 21.33,-156.278 -2.85,-0.156 -7.23,-0.441 -7.23,-0.441 -0.17,0 -27.45,-1.707 -40.64,-4.297 -28,-5.469 -53.92,-15.703 -73,-28.797 0,0 -5.45,-3.742 -9.03,-6.183 -0.27,2.168 -0.56,4.336 -0.56,4.336 -9.298,68.117 -51.271,116.933 -121.407,141.211 -47.051,16.378 -106.153,18.761 -166.426,6.777 -45.078,-8.965 -98.692,-26.942 -143.399,-47.957 0,0 -1.523,-0.762 -2.539,-1.211 -1.035,0.371 -2.636,0.957 -2.636,0.957 -16.485,6.062 -31.934,9.902 -47.266,11.766 -28.613,3.527 -58.984,2.277 -90.371,-3.7 -26.387,-4.972 -54.258,-14.238 -85.254,-28.281 0,0 -4.941,-2.277 -8.223,-3.73 -0.41,3.152 -1.308,9.785 -1.308,9.785 l -323.0041,-44.004 29.1797,-214.18 6.1718,-0.078 c 15.6055,-0.195 26.7969,-3.078 33.2813,-8.711 12.9687,-11.269 15.2148,-21.387 16.9531,-34.484 0.0391,-0.039 0.918,-6.531 31.4452,-230.371 l 0.039,0.039 c -0.019,-0.43 0.039,-0.899 0.098,-1.309 0.156,-1.101 0.234,-2.332 0.234,-3.621 -0.078,-7.082 -2.949,-16.437 -11.015,-24.562 -4.395,-4.59 -11.192,-8.575 -20.1371,-11.915 l -5.3321,-2 L 116.445,19.4727 1118,155.898 c 0,0 -18.1,132.707 -18.89,138.684 3.32,-0.305 8.37,-0.773 8.37,-0.773 28.87,-2.598 67.89,4.336 83.16,10.48 l -0.97,-0.168 5.78,2.109 c 0,0 1.58,0.637 3.22,1.309 0.82,-6.101 18.79,-138.047 18.79,-138.047 l 985.18,134.219 c 0,0 -30.65,225.852 -31.37,230.715 4.78,0.664 104.73,14.519 104.73,14.519 38.22,5.157 70.31,22.637 90.45,49.192 12.59,16.531 19.31,34.961 19.47,53.308 l -0.67,10.696 -29.51,216.875 c 0,0 -72.01,-9.805 -76.68,-10.45 -0.56,4.493 -6.23,47.95 -6.23,47.95 -2.46,16.523 -9.49,29.179 -20.95,37.714 -11.65,8.622 -26.61,12.079 -42.15,9.786 -0.02,0 -155.55,-21.203 -166.49,-22.696 -0.92,0.711 -2.24,1.758 -2.24,1.758 -17.02,13.457 -36.45,24.012 -57.78,31.375 -47.13,16.36 -106.21,18.801 -166.44,6.797"
         inkscape:connector-curvature="0" /><path
         id="path16"
         style="fill:#231f20;fill-opacity:1;fill-rule:nonzero;stroke:none"
         d="m 1817.27,978.789 v 0 c -44.93,-8.965 -98.32,-26.855 -142.82,-47.851 0,0 -1.95,-0.918 -3.53,-1.68 -1.6,0.617 -3.63,1.379 -3.63,1.379 -15.98,5.937 -31.25,9.734 -46.66,11.601 -28.19,3.535 -58.31,2.325 -89.56,-3.644 -26.27,-4.93 -53.96,-14.121 -84.72,-28.055 0,0 -6.37,-2.91 -11.35,-5.187 -0.41,3.039 -1.37,10.644 -1.37,10.644 l -4.65,-0.594 -313.38,-42.687 c 0,0 20.04,-147.195 21.33,-156.465 -4.41,-0.273 -9.92,-0.605 -9.92,-0.605 -0.26,-0.047 -27.33,-1.739 -40.33,-4.266 -27.66,-5.41 -53.25,-15.5 -72.08,-28.418 0,0 -6.93,-4.766 -12.32,-8.438 -0.57,4.122 -1.11,8.36 -1.11,8.36 -9.162,67.109 -50.568,115.203 -119.748,139.148 -46.66,16.211 -105.313,18.606 -165.137,6.699 -44.941,-8.945 -98.32,-26.835 -142.793,-47.812 0,0 -1.972,-0.906 -3.535,-1.641 -1.621,0.598 -3.613,1.328 -3.613,1.328 -16.309,5.989 -31.563,9.778 -46.719,11.641 -28.32,3.469 -58.457,2.238 -89.59,-3.672 -26.191,-4.961 -53.867,-14.148 -84.629,-28.105 0,0 -6.289,-2.852 -11.289,-5.117 -0.41,3 -1.465,10.636 -1.465,10.636 L 14.6094,722.656 43.1836,513.066 47.168,513.027 c 16.2109,-0.183 27.9687,-3.281 34.8828,-9.297 13.6133,-11.843 16.0742,-22.859 17.8515,-36.062 L 131.289,237.316 c -0.039,0.086 0.176,-1.308 0.176,-1.308 1.094,-7.942 -1.367,-20.02 -11.485,-30.274 -4.687,-4.785 -11.757,-9.004 -21.0737,-12.5 L 95.4883,191.945 118.574,22.2578 1115.14,158.047 c 0,0 -17.48,128.703 -18.94,139.297 5.11,-0.41 11.5,-0.996 11.5,-0.996 28.54,-2.578 67.01,4.23 81.99,10.273 0.02,0 6.21,2.473 10.97,4.414 1.51,-10.801 18.93,-138.699 18.93,-138.699 l 4.59,0.574 975.66,132.93 c 0,0 -30.15,221.945 -31.34,230.734 8.39,1.199 107.16,14.832 107.16,14.832 37.52,5.129 69.07,22.266 88.81,48.242 12.27,16.125 18.79,34.211 18.95,51.836 0.04,3.469 -0.14,6.914 -0.59,10.293 l -29.24,214.414 c 0,0 -68.51,-9.336 -76.7,-10.418 -0.99,7.735 -6.54,50.411 -6.54,50.411 -2.36,15.82 -9.08,27.898 -20,36.043 -11.09,8.214 -25.37,11.523 -40.25,9.289 0,0 -148.77,-20.266 -167.6,-22.805 -1.41,1.066 -3.07,2.402 -3.07,2.402 -16.77,13.301 -35.99,23.703 -57.01,30.989 -46.7,16.191 -105.35,18.562 -165.15,6.687"
         inkscape:connector-curvature="0" /><path
         id="path18"
         style="fill:#231f20;fill-opacity:1;fill-rule:nonzero;stroke:none"
         d="m 116.25,209.055 c 1.211,-8.723 -1.172,-22.246 -12.793,-34.035 C 97.1289,168.547 88.1445,164.25 80.7617,161.445 83.3008,142.766 99.7266,22.0508 102.754,0 c 26.367,3.58594 960.996,130.949 987.386,134.512 -3.06,22.433 -19.15,140.547 -19.15,140.547 l 17.35,-1.59 c 27.86,-2.5 65.24,4.129 79.81,9.98 l 16.54,6.668 c 0,0 16.03,-117.637 19.06,-140.066 26.35,3.621 944.75,128.73 971.07,132.312 -3.34,24.297 -31.34,230.703 -31.34,230.703 l 111.75,15.481 c 71.23,9.734 109.03,62.137 103.15,105.176 0,0 -25.27,185.593 -28.56,209.812 -18.53,-2.547 -76.73,-10.496 -76.73,-10.496 l -7.17,55.086 c -2.13,14.551 -8.36,25.625 -18.15,32.891 -10.04,7.492 -23.14,10.5 -36.79,8.437 l -169.63,-23.074 -4.61,3.66 c -16.29,12.883 -34.94,23.039 -55.67,30.215 -45.91,15.93 -103.73,18.242 -162.69,6.523 -44.59,-8.894 -97.54,-26.621 -141.76,-47.5 l -5.29,-2.48 -5.45,2.004 c -15.68,5.828 -30.59,9.519 -45.63,11.367 -27.77,3.484 -57.4,2.246 -88.14,-3.574 -25.84,-4.864 -53.2,-13.926 -83.69,-27.746 l -17.01,-7.774 c 0,0 -0.92,6.789 -1.62,12.278 -24.36,-3.34 -284.6,-38.782 -308.78,-42.102 3.14,-22.996 21.35,-156.785 21.35,-156.785 l -14.87,-0.949 c -0.26,0 -27.04,-1.68 -39.74,-4.18 -27.03,-5.262 -52.03,-15.098 -70.312,-27.664 l -18.555,-12.715 -2.149,15.848 c -8.886,65.226 -49.238,112.043 -116.64,135.383 -45.938,15.984 -103.711,18.289 -162.715,6.542 -44.57,-8.917 -97.539,-26.632 -141.738,-47.46 l -5.293,-2.493 -5.41,2.032 c -15.86,5.781 -30.782,9.531 -45.665,11.379 -27.851,3.417 -57.48,2.207 -88.183,-3.645 -25.762,-4.852 -53.086,-13.914 -83.594,-27.754 l -16.953,-7.715 c 0,0 -0.918,6.77 -1.66,12.227 C 284.645,730.012 24.1992,694.551 0,691.23 3.10547,668.391 24.5898,510.773 27.4219,490.215 c 11.8164,-0.164 27.9101,-1.844 37.832,-10.43 14.8242,-12.859 17.5586,-25.234 19.4336,-38.945 l 31.3675,-230.371 0.195,-1.414"
         inkscape:connector-curvature="0" /><path
         id="path20"
         style="fill:#ffffff;fill-opacity:1;fill-rule:nonzero;stroke:none"
         d="m 1818.16,974.23 c -44.53,-8.867 -97.52,-26.621 -141.75,-47.472 l -5.28,-2.508 -5.43,2.039 c -15.66,5.793 -30.56,9.484 -45.62,11.34 -27.78,3.476 -57.4,2.293 -88.17,-3.574 -25.82,-4.856 -53.18,-13.946 -83.63,-27.754 l -17.09,-7.754 c 0,0 -0.9,6.785 -1.58,12.254 -24.36,-3.321 -284.6,-38.77 -308.78,-42.059 3.1,-23.027 21.36,-156.797 21.36,-156.797 l -14.89,-0.937 c -0.29,-0.02 -27.05,-1.692 -39.74,-4.18 -27.04,-5.305 -52.04,-15.148 -70.32,-27.695 l -18.552,-12.707 -2.149,15.801 c -8.906,65.293 -49.219,112.101 -116.621,135.41 -45.938,15.996 -103.73,18.293 -162.754,6.582 -44.551,-8.926 -97.559,-26.66 -141.719,-47.481 l -5.273,-2.508 -5.41,2.02 c -15.86,5.813 -30.782,9.57 -45.703,11.379 -27.832,3.457 -57.461,2.215 -88.145,-3.625 -25.781,-4.863 -53.105,-13.934 -83.594,-27.754 l -16.992,-7.695 c 0,0 -0.918,6.758 -1.64,12.246 C 304.449,757.48 44.0039,721.992 19.8438,718.703 22.9297,695.852 44.4141,538.262 47.207,517.656 59.043,517.551 75.1758,515.832 85.0977,507.238 99.9023,494.367 102.617,482.004 104.492,468.32 l 31.367,-230.351 -2.07,5.617 c 1.035,-1.602 1.856,-4.055 2.266,-7.023 1.191,-8.739 -1.192,-22.293 -12.754,-34.083 -6.367,-6.484 -15.313,-10.722 -22.735,-13.562 2.559,-18.73 18.985,-139.4258 21.993,-161.4453 26.347,3.6015 960.991,130.9653 987.391,134.5503 -3.07,22.391 -19.15,140.508 -19.15,140.508 l 17.33,-1.601 c 27.87,-2.5 65.29,4.129 79.82,9.968 l 16.54,6.711 c 0,0 16.06,-117.687 19.05,-140.05 26.38,3.554 944.74,128.652 971.11,132.277 -3.36,24.316 -31.39,230.742 -31.39,230.742 l 111.76,15.43 c 71.25,9.715 109.06,62.156 103.2,105.176 0,0 -25.31,185.586 -28.63,209.804 -18.46,-2.511 -76.68,-10.449 -76.68,-10.449 l -7.19,55.066 c -2.13,14.532 -8.36,25.637 -18.1,32.872 -10.1,7.5 -23.17,10.5 -36.84,8.457 l -169.67,-23.106 -4.55,3.672 c -16.31,12.902 -34.96,23.047 -55.64,30.215 -45.98,15.93 -103.77,18.242 -162.76,6.515"
         inkscape:connector-curvature="0" /><g
         id="g22"><g
           clip-path="url(#clipPath28)"
           id="g24"><path
             id="path40"
             style="fill:url(#linearGradient38);fill-opacity:1;fill-rule:nonzero;stroke:none"
             d="m 2117.99,462.766 c -12.03,7.742 -19.79,19.168 -21.37,31.211 l -44.74,328.367 c -7.25,49.082 -36.86,83.867 -85.69,100.754 -38.08,13.261 -86.87,14.882 -137.48,4.804 -40.76,-8.156 -104.76,-27.668 -155.88,-56.113 -16.44,9.891 -35.78,16.356 -57.54,18.992 -22.59,2.805 -47.2,1.836 -73.28,-3.133 -42.38,-7.968 -85.76,-25.839 -119.08,-49.093 l -28.4,-19.793 -5.25,38.718 -212.91,-29.023 15.39,-113.152 c 27.07,-0.801 52.81,-18.262 56.01,-39.856 l 39.75,-291.777 c 1.68,-11.973 -2.75,-24.961 -12.23,-35.692 -6.09,-7.101 -13.9,-12.519 -22.67,-16.144 l 13.42,-98.691 262.65,35.773 -13.46,98.711 c -9.45,1.082 -18.35,4.277 -26.19,9.461 -11.99,7.773 -19.76,19.133 -21.33,31.191 l -39.92,292.844 c -1.31,9.219 0.65,17.91 6.8,26.777 9.92,15.399 30.02,28.153 58.42,31.973 39.41,5.301 65.58,-16.574 68.38,-35.664 l 60.31,-442.598 221.46,30.145 -13.41,98.711 c -9.5,1.105 -18.48,4.297 -26.27,9.472 -11.98,7.766 -19.65,19.141 -21.35,31.153 l -39.75,292.109 c -1.34,9.102 0.65,17.844 6.76,26.68 9.92,15.41 30,28.254 58.44,32.082 39.39,5.234 65.58,-16.621 68.42,-35.703 l 60.17,-441.778 221.39,30.106 -13.42,98.73 c -9.43,1.125 -18.38,4.258 -26.15,9.446"
             inkscape:connector-curvature="0" /></g></g><path
         id="path42"
         style="fill:#ffffff;fill-opacity:1;fill-rule:nonzero;stroke:none"
         d="m 1005.5,616.555 c -5.523,-13.703 -7.457,-28.438 -5.504,-42.657 0,-0.039 0,-0.168 0.034,-0.265 3.34,-24.207 14.05,-40.477 27.27,-54.16 -26.11,-22.508 -48.749,-52.45 -44.198,-94.903 0.078,-1.004 0.214,-2.09 0.312,-3.132 3.535,-25.723 16.445,-48.02 37.636,-64.7 28.87,-22.715 70.75,-32.371 114.93,-26.562 30.56,3.976 59.41,16.621 85.66,34.16 6.49,-5.078 20.35,-16.023 20.35,-16.023 l 109.75,14.98 -26.08,191.543 -109.33,-14.934 -3.91,-13.828 c -1.44,-5.183 -4.84,-10.672 -7.01,-16.035 -5,3.867 -5.43,4.141 -10.29,8 23.02,21.738 42.26,49.617 37.26,86.238 l -0.04,0.274 c -7.46,53.625 -63.76,87.394 -130.92,78.574 -45.7,-6.035 -81.58,-30.957 -95.92,-66.57"
         inkscape:connector-curvature="0" /><g
         id="g44"><g
           clip-path="url(#clipPath50)"
           id="g46"><path
             id="path62"
             style="fill:url(#linearGradient60);fill-opacity:1;fill-rule:nonzero;stroke:none"
             d="m 1320.61,429.395 -40.55,-5.547 -15.55,12.207 c 6.54,9.922 12.09,20.48 16.74,31.593 1.45,3.594 2.87,7.149 4.16,10.879 l 27.93,3.778 -6.46,47.785 -73.36,-10 c -4.24,-14.942 -10.98,-30.207 -19.54,-44.719 l -53.63,41.992 c 29.61,22.668 55.16,49.211 50.2,84.172 -5.47,39.395 -48.71,67.371 -106.26,59.832 -41.17,-5.457 -68.16,-27.461 -78.44,-53.027 -4.12,-10.203 -5.52,-21.16 -4.08,-31.68 3.65,-26.074 16.7,-40.125 39.38,-58.398 -32.68,-23.184 -60.55,-50.645 -56.27,-91.336 5.6,-53.008 61.62,-83.77 128.25,-74.934 33.53,4.297 64.55,18.262 90.33,38.867 l 24.76,-19.48 78.79,10.742 z m -193.2,-24.149 c -26.71,-3.555 -50.04,6.18 -53.35,29.727 -1.96,14.109 12.97,28.953 35,45.691 l 66.31,-52.039 c -14.93,-12.57 -31.28,-21.25 -47.96,-23.379 z m -15.43,214.09 c 19.24,2.648 35.41,-6.629 37.56,-22.598 2.34,-16.582 -14.28,-30.234 -35.17,-43.789 -11.94,8.938 -30.86,22.473 -32.33,33.555 -2.25,15.969 10.72,30.226 29.94,32.832"
             inkscape:connector-curvature="0" /></g></g><g
         id="g64"><g
           clip-path="url(#clipPath70)"
           id="g66"><path
             id="path82"
             style="fill:url(#linearGradient80);fill-opacity:1;fill-rule:nonzero;stroke:none"
             d="m 1016.95,312.734 c -12.01,7.696 -19.747,19.161 -21.348,31.192 l -44.766,328.359 c -7.188,49.043 -36.797,83.887 -85.645,100.813 -38.086,13.164 -86.875,14.812 -137.461,4.754 -40.839,-8.086 -104.765,-27.657 -155.878,-56.122 -16.465,9.922 -35.782,16.348 -57.598,19.043 -22.559,2.793 -47.207,1.778 -73.203,-3.203 -42.442,-7.941 -85.781,-25.793 -119.082,-49.062 L 293.531,668.742 288.297,707.441 75.3711,678.418 90.8008,565.324 c 27.0702,-0.801 52.7732,-18.351 56.0152,-39.933 l 39.688,-291.7 c 1.68,-12.05 -2.695,-25.086 -12.188,-35.75 -6.152,-7.14 -13.906,-12.531 -22.675,-16.152 l 13.418,-98.7109 262.613,35.7809 -13.438,98.711 c -9.453,1.141 -18.379,4.297 -26.191,9.473 -12.031,7.715 -19.766,19.16 -21.387,31.191 l -39.883,292.86 c -1.328,9.133 0.645,17.89 6.778,26.797 9.98,15.39 30.019,28.117 58.437,31.945 39.414,5.273 65.606,-16.602 68.438,-35.656 l 60.293,-442.637 221.445,30.129 -13.437,98.75 c -9.512,1.152 -18.438,4.238 -26.25,9.461 -11.973,7.734 -19.727,19.133 -21.289,31.172 l -39.786,292.101 c -1.425,9.149 0.586,17.852 6.7,26.746 10,15.332 30.039,28.184 58.476,32.024 39.375,5.273 65.527,-16.653 68.418,-35.645 l 60.195,-441.914 221.429,30.184 -13.5,98.691 c -9.43,1.164 -18.38,4.317 -26.17,9.492"
             inkscape:connector-curvature="0" /></g></g><path
         id="path84"
         style="fill:#231f20;fill-opacity:1;fill-rule:nonzero;stroke:none"
         d="m 1467.71,408.281 -39.92,292.844 c -0.7,4.727 -0.49,9.402 0.75,13.992 -6.24,-4.597 -11.68,-9.676 -15.28,-15.293 -6.15,-8.847 -8.14,-17.617 -6.78,-26.765 l 39.87,-292.844 c 1.64,-12.051 9.35,-23.496 21.35,-31.211 7.83,-5.176 16.79,-8.328 26.23,-9.473 l 10.07,-74.011 24.69,3.398 -13.46,98.711 c -9.45,1.082 -18.35,4.277 -26.19,9.461 -11.99,7.773 -19.76,19.133 -21.33,31.191"
         inkscape:connector-curvature="0" /><path
         id="path86"
         style="fill:#231f20;fill-opacity:1;fill-rule:nonzero;stroke:none"
         d="m 2117.99,462.766 c -12.03,7.742 -19.79,19.168 -21.37,31.211 l -44.74,328.367 c -7.25,49.082 -36.86,83.867 -85.69,100.754 -38.08,13.261 -86.87,14.882 -137.48,4.804 -40.76,-8.156 -104.76,-27.668 -155.88,-56.113 -16.44,9.891 -35.78,16.356 -57.54,18.992 -22.59,2.805 -47.2,1.836 -73.28,-3.133 -42.38,-7.968 -85.76,-25.839 -119.08,-49.093 l -28.4,-19.793 -5.25,38.718 -212.91,-29.023 3.36,-24.695 188.22,25.664 5.25,-38.684 28.38,19.817 c 33.36,23.164 76.76,41.054 119.18,49.023 25.96,4.941 50.61,5.965 73.17,3.125 21.79,-2.668 41.13,-9.074 57.57,-18.937 51.16,28.41 115.04,47.968 155.98,56.085 50.53,10.067 99.36,8.407 137.42,-4.804 48.85,-16.875 78.44,-51.731 85.63,-100.723 l 44.82,-328.437 c 1.6,-11.973 9.32,-23.43 21.33,-31.192 7.79,-5.156 16.76,-8.312 26.19,-9.472 l 10.04,-74.016 24.65,3.379 -13.42,98.73 c -9.43,1.125 -18.38,4.258 -26.15,9.446"
         inkscape:connector-curvature="0" /><path
         id="path88"
         style="fill:#231f20;fill-opacity:1;fill-rule:nonzero;stroke:none"
         d="m 1782.13,451.094 -39.75,292.109 c -0.7,4.738 -0.5,9.367 0.84,13.977 -6.34,-4.629 -11.74,-9.7 -15.41,-15.313 -6.09,-8.879 -8.16,-17.57 -6.79,-26.711 l 39.8,-292.097 c 1.62,-12.012 9.34,-23.457 21.33,-31.211 7.81,-5.157 16.78,-8.332 26.25,-9.446 l 10.06,-74.023 24.7,3.379 -13.41,98.711 c -9.5,1.105 -18.48,4.297 -26.27,9.472 -11.98,7.766 -19.65,19.141 -21.35,31.153"
         inkscape:connector-curvature="0" /><path
         id="path90"
         style="fill:#231f20;fill-opacity:1;fill-rule:nonzero;stroke:none"
         d="m 366.656,258.234 -39.883,292.86 c -0.664,4.699 -0.41,9.386 0.782,13.957 -6.231,-4.602 -11.68,-9.66 -15.313,-15.246 -6.133,-8.856 -8.105,-17.598 -6.797,-26.785 l 39.922,-292.883 c 1.602,-12.02 9.336,-23.438 21.348,-31.192 7.812,-5.136 16.758,-8.289 26.152,-9.414 l 10.117,-74.051 24.688,3.379 -13.438,98.711 c -9.453,1.141 -18.379,4.297 -26.191,9.473 -12.031,7.715 -19.766,19.16 -21.387,31.191"
         inkscape:connector-curvature="0" /><path
         id="path92"
         style="fill:#231f20;fill-opacity:1;fill-rule:nonzero;stroke:none"
         d="m 681.188,301.055 -39.786,292.101 c -0.742,4.727 -0.507,9.375 0.743,13.953 -6.29,-4.617 -11.719,-9.675 -15.372,-15.293 -6.093,-8.875 -8.144,-17.636 -6.738,-26.718 L 659.82,273.027 c 1.602,-12.031 9.317,-23.445 21.328,-31.211 7.813,-5.175 16.778,-8.347 26.231,-9.453 l 10.078,-74.004 24.707,3.313 -13.437,98.75 c -9.512,1.152 -18.438,4.238 -26.25,9.461 -11.973,7.734 -19.727,19.133 -21.289,31.172"
         inkscape:connector-curvature="0" /><path
         id="path94"
         style="fill:#231f20;fill-opacity:1;fill-rule:nonzero;stroke:none"
         d="m 995.602,343.926 -44.766,328.359 c -7.188,49.043 -36.797,83.887 -85.645,100.813 -38.086,13.164 -86.875,14.812 -137.461,4.754 -40.839,-8.086 -104.765,-27.657 -155.878,-56.122 -16.465,9.922 -35.782,16.348 -57.598,19.043 -22.559,2.793 -47.207,1.778 -73.203,-3.203 -42.442,-7.941 -85.781,-25.793 -119.082,-49.062 l -28.438,-19.766 -5.234,38.699 -212.9259,-29.023 3.3789,-24.727 188.219,25.696 5.234,-38.684 28.418,19.785 c 33.281,23.235 76.641,41.125 119.102,49.063 26.035,4.941 50.664,5.996 73.183,3.156 21.797,-2.707 41.153,-9.074 57.578,-18.957 51.172,28.43 115.059,47.91 155.918,56.047 50.567,10.086 99.375,8.406 137.442,-4.758 48.847,-16.914 78.437,-51.758 85.664,-100.781 l 44.726,-328.406 c 1.641,-12.032 9.375,-23.516 21.407,-31.172 7.769,-5.196 16.739,-8.371 26.129,-9.473 l 10.08,-74.035 24.77,3.379 -13.5,98.691 c -9.43,1.164 -18.38,4.317 -26.17,9.492 -12.01,7.696 -19.747,19.161 -21.348,31.192"
         inkscape:connector-curvature="0" /><g
         id="g96"><g
           clip-path="url(#clipPath102)"
           id="g98"><path
             id="path114"
             style="fill:url(#linearGradient112);fill-opacity:1;fill-rule:nonzero;stroke:none"
             d="m 2352.62,680.305 c -4.63,34.011 -35.96,51.797 -74.3,58.699 -16.74,2.941 -33.48,4.543 -48.22,7.598 -10.45,2.472 -23.28,5.441 -25.59,18.105 -2.19,12.18 8.3,25.891 32.27,28.313 29.94,2.957 49.29,-16.809 59.67,-33.059 l 31.46,4.309 -10.1,74.316 -41.29,-5.234 -3.49,-5.899 c -9.69,2.402 -28.17,4.453 -52.76,1.367 -46.73,-6.047 -82.59,-38.496 -77.26,-79.199 4.49,-32.785 32.63,-49.797 68.36,-56.562 17.17,-3.301 37.95,-5.547 53.06,-8.848 10.61,-2.578 23.83,-5.949 26.29,-19.356 2.27,-12.98 -8.45,-26.796 -32.91,-29.992 -30.35,-3.886 -50.13,18.157 -63.02,35.84 l -33.15,-4.238 10.49,-76.875 45.82,6.191 3.59,6.789 c 12.7,-3.605 45.53,-8.164 74.4,1.903 36.21,12.629 61.31,41.875 56.68,75.832"
             inkscape:connector-curvature="0" /></g></g><g
         id="g116"><g
           clip-path="url(#clipPath122)"
           id="g118"><path
             id="path134"
             style="fill:url(#linearGradient132);fill-opacity:1;fill-rule:nonzero;stroke:none"
             d="m 2102.03,894.328 51.49,6.863 -18.83,-69.375 -51.62,-6.961 18.96,69.473 v 0"
             inkscape:connector-curvature="0" /></g></g><path
         id="path136"
         style="fill:#231f20;fill-opacity:1;fill-rule:nonzero;stroke:none"
         d="m 1211.52,477.316 -47.89,37.45 c -4.48,-3.926 -9.12,-7.821 -13.96,-11.414 l 53.63,-42.004 c 3.13,5.215 5.68,10.656 8.22,15.968"
         inkscape:connector-curvature="0" /><path
         id="path138"
         style="fill:#231f20;fill-opacity:1;fill-rule:nonzero;stroke:none"
         d="m 1116.75,391.164 c 16.7,2.195 33.02,10.809 47.95,23.399 l -4.26,3.359 c -10.63,-6.633 -21.77,-11.223 -33.03,-12.676 -26.71,-3.555 -50.04,6.18 -53.35,29.727 -0.61,4.433 0.54,8.875 2.96,13.465 -9.56,-9.668 -14.84,-18.719 -13.63,-27.489 3.3,-23.535 26.66,-33.301 53.36,-29.785"
         inkscape:connector-curvature="0" /><path
         id="path140"
         style="fill:#231f20;fill-opacity:1;fill-rule:nonzero;stroke:none"
         d="m 1093.63,647.336 c 57.54,7.547 100.8,-20.449 106.29,-59.875 2.31,-16.406 -2.28,-30.926 -10.68,-44.082 14.96,16.758 24.51,35.695 21.31,58.156 -5.47,39.395 -48.71,67.371 -106.26,59.832 -36.35,-4.812 -61.6,-22.637 -74.08,-44.265 14.08,14.98 35.33,26.523 63.42,30.234"
         inkscape:connector-curvature="0" /><path
         id="path142"
         style="fill:#231f20;fill-opacity:1;fill-rule:nonzero;stroke:none"
         d="m 1233.52,520.09 c -1.2,-4.406 -3.09,-8.809 -4.79,-13.254 l 67.46,9.258 4.83,-35.449 12.32,1.66 -6.46,47.785 -73.36,-10"
         inkscape:connector-curvature="0" /><path
         id="path144"
         style="fill:#231f20;fill-opacity:1;fill-rule:nonzero;stroke:none"
         d="m 1264.51,436.055 c 6.06,9.172 11.19,18.996 15.55,29.16 l -5.29,-0.731 c -1.33,-3.711 -2.76,-7.246 -4.2,-10.89 -4.59,-11.074 -10.2,-21.66 -16.74,-31.602 l 15.55,-12.156 40.52,5.508 4.77,-34.903 12.34,1.68 -6.4,47.274 -40.55,-5.547 -15.55,12.207"
         inkscape:connector-curvature="0" /><path
         id="path146"
         style="fill:#231f20;fill-opacity:1;fill-rule:nonzero;stroke:none"
         d="m 1071.36,572.5 c 1.51,-11.102 20.43,-24.676 32.33,-33.602 15.31,9.95 28.18,19.93 33.15,31.024 -6.13,-5.801 -13.86,-11.336 -22.47,-16.973 -11.94,8.938 -30.86,22.473 -32.33,33.555 -0.62,4.094 -0.18,8.039 1.09,11.711 -8.45,-6.223 -13.19,-15.664 -11.77,-25.715"
         inkscape:connector-curvature="0" /><path
         id="path148"
         style="fill:#231f20;fill-opacity:1;fill-rule:nonzero;stroke:none"
         d="m 2209.63,814.785 c 24.59,3.164 43.1,1.086 52.75,-1.387 l 3.54,5.872 41.23,5.3 8.44,-61.98 12.32,1.68 -10.1,74.316 -41.29,-5.234 -3.49,-5.899 c -9.69,2.402 -28.17,4.453 -52.76,1.367 -30.58,-3.937 -56.31,-19.453 -69.12,-41.007 14.16,14.179 34.9,23.898 58.48,26.972"
         inkscape:connector-curvature="0" /><path
         id="path150"
         style="fill:#231f20;fill-opacity:1;fill-rule:nonzero;stroke:none"
         d="m 2278.32,739.004 c -16.74,2.941 -33.48,4.543 -48.22,7.598 -10.45,2.472 -23.28,5.441 -25.59,18.105 -0.41,2.258 0.06,4.582 0.51,6.906 -8.44,-5.656 -12.54,-13.476 -11.19,-20.968 2.28,-12.618 15.13,-15.625 25.55,-18.055 14.78,-3.117 31.54,-4.699 48.22,-7.629 38.38,-6.895 69.72,-24.676 74.37,-58.699 1.88,-13.547 -1.21,-26.262 -7.63,-37.617 13.51,14.168 20.97,32.058 18.28,51.66 -4.63,34.011 -35.96,51.797 -74.3,58.699"
         inkscape:connector-curvature="0" /><path
         id="path152"
         style="fill:#231f20;fill-opacity:1;fill-rule:nonzero;stroke:none"
         d="m 2194.79,670.703 -33.15,-4.238 1.72,-12.442 20.72,2.637 c 12.97,-17.683 32.72,-39.746 63.09,-35.82 19.49,2.551 29.92,11.875 32.3,22.121 -5.43,-3.75 -12.24,-6.887 -21.66,-8.098 -30.35,-3.886 -50.13,18.157 -63.02,35.84"
         inkscape:connector-curvature="0" /><path
         id="path154"
         style="fill:#231f20;fill-opacity:1;fill-rule:nonzero;stroke:none"
         d="m 2102.03,894.328 -3.57,-13.086 44.45,5.918 -15.29,-56.328 7.07,0.984 18.83,69.375 -51.49,-6.863"
         inkscape:connector-curvature="0" /><path
         id="path158"
         style="fill:#412013;fill-opacity:1;fill-rule:nonzero;stroke:none"
         d="m 458.902,22.5195 v 0 c 0,0.168 0,-0.1445 0,0"
         inkscape:connector-curvature="0" /></g></g></svg>